<svg width="14" height="18" viewBox="0 0 14 18" fill="none" xmlns="http://www.w3.org/2000/svg">
<path d="M12.9249 9.2843C12.477 10.7993 10.9094 11.9994 10.9094 11.9994C11.3573 11.9994 11.7156 12.0594 11.9843 12.1494C11.835 12.3294 11.5513 12.6744 11.1632 13.0194C10.5958 13.5144 9.83441 14.0244 9.01327 14.0244C8.19213 14.0244 7.50536 13.3494 7.50536 12.5094V6.94424H9.58061C9.80455 6.94424 9.98371 6.76424 9.98371 6.53923V5.89422C9.98371 5.66921 9.80455 5.48921 9.58061 5.48921H7.50536V4.69419C8.35636 4.39418 8.95355 3.58416 8.95355 2.62414C8.95355 1.40911 7.96818 0.434082 6.77379 0.434082C5.5794 0.434082 4.59403 1.42411 4.59403 2.62414C4.59403 3.58416 5.20616 4.39418 6.04223 4.69419V5.48921H3.96698C3.74303 5.48921 3.56387 5.66921 3.56387 5.89422V6.53923C3.56387 6.76424 3.74303 6.94424 3.96698 6.94424H6.04223V12.5094C6.04223 12.9294 5.878 13.3044 5.59433 13.5894C5.3256 13.8594 4.93742 14.0394 4.51938 14.0394C3.14584 14.0394 1.90666 12.6144 1.54834 12.1644C1.83201 12.0744 2.17539 12.0144 2.62329 12.0144C2.62329 12.0144 1.05565 10.8293 0.607759 9.2993C0.607759 9.2993 -0.67621 11.0993 0.48832 13.3494C0.48832 13.3494 0.48832 12.9744 0.801847 12.6294C1.01086 13.1394 1.60806 14.1894 3.01147 14.9994C4.84784 16.0645 6.10195 16.4995 6.66928 17.4445C6.71407 17.5195 6.80365 17.5195 6.84844 17.4445C7.41578 16.4995 8.66989 16.0645 10.5063 14.9994C11.9097 14.1894 12.5069 13.1394 12.7159 12.6294C13.0294 12.9744 13.0294 13.3494 13.0294 13.3494C14.179 11.1143 12.91 9.2993 12.91 9.2993L12.9249 9.2843ZM5.51968 2.63914C5.51968 1.93412 6.08702 1.3641 6.78872 1.3641C7.49043 1.3641 8.05776 1.93412 8.05776 2.63914C8.05776 3.05915 7.84874 3.44916 7.53522 3.67416V3.47916C7.53522 3.07415 7.20676 2.74414 6.80365 2.74414C6.40055 2.74414 6.07209 3.07415 6.07209 3.47916V3.67416C5.75856 3.44916 5.54954 3.07415 5.54954 2.63914H5.51968Z" fill="#1F1C16"/>
</svg>
