<?xml version="1.0" encoding="UTF-8"?>
<svg id="Camada_1" xmlns="http://www.w3.org/2000/svg" version="1.1" viewBox="0 0 36 36">
  <!-- Generator: Adobe Illustrator 29.8.2, SVG Export Plug-In . SVG Version: 2.1.1 Build 3)  -->
  <defs>
    <style>
      .st0 {
        fill: lime;
      }
    </style>
  </defs>
  <path class="st0" d="M20.65,7.41v2.65h-1.32v1.32h-2.65v-1.32h-1.32v-2.65h1.32v-1.32h2.65v1.32h1.32Z"/>
  <path class="st0" d="M29.92,28.59v-1.32h-1.32v-11.92h-2.65v11.92h-2.65v-11.92h-2.65v11.92h-5.3v-11.92h-2.65v11.92h-2.65v-11.92h-2.65v11.92h-1.32v1.32h-2.65v2.65h1.32v1.32h26.48v-1.32h1.32v-2.65h-2.65ZM29.92,31.24H6.08v-1.32h1.32v-1.32h21.19v1.32h1.32v1.32Z"/>
  <path class="st0" d="M31.24,11.38v1.32h-1.32v1.32H6.08v-1.32h-1.32v-1.32h2.65v1.32h21.19v-1.32h2.65Z"/>
  <path class="st0" d="M32.57,8.73v2.65h-1.32v-1.32h-3.97v-1.32h-2.65v-1.32h-2.65v-1.32h-2.65v-1.32h-2.65v1.32h-2.65v1.32h-2.65v1.32h-2.65v1.32h-3.97v1.32h-1.32v-2.65h3.97v-1.32h2.65v-1.32h2.65v-1.32h2.65v-1.32h5.3v1.32h2.65v1.32h2.65v1.32h2.65v1.32h3.97Z"/>
</svg>