<svg width="16" height="17" viewBox="0 0 16 17" fill="none" xmlns="http://www.w3.org/2000/svg">
<g clip-path="url(#clip0_132_1077)">
<g filter="url(#filter0_d_132_1077)">
<path d="M14.6667 4.96712V3.63379H14.0001V2.96712H13.3334V2.30046H12.6667V1.63379H3.33341V2.30046H2.66675V2.96712H2.00008V3.63379H1.33341V4.96712H0.666748V15.6338H1.33341V16.3005H14.6667V15.6338H15.3334V4.96712H14.6667ZM8.66675 2.96712H12.0001V3.63379H12.6667V4.30046H13.3334V5.63379H8.66675V2.96712ZM2.66675 4.30046H3.33341V3.63379H4.00008V2.96712H7.33341V5.63379H2.66675V4.30046ZM2.00008 14.9671V6.96712H7.33341V8.30046H6.00008V10.9671H6.66675V11.6338H8.66675V12.3005H6.00008V13.6338H7.33341V14.9671H2.00008ZM14.0001 14.9671H8.66675V13.6338H10.0001V10.9671H9.33341V10.3005H7.33341V9.63379H10.0001V8.30046H8.66675V6.96712H14.0001V14.9671Z" fill="#00FF00"/>
</g>
</g>
<defs>
<filter id="filter0_d_132_1077" x="-9.33325" y="-6.36621" width="34.6667" height="34.6665" filterUnits="userSpaceOnUse" color-interpolation-filters="sRGB">
<feFlood flood-opacity="0" result="BackgroundImageFix"/>
<feColorMatrix in="SourceAlpha" type="matrix" values="0 0 0 0 0 0 0 0 0 0 0 0 0 0 0 0 0 0 127 0" result="hardAlpha"/>
<feOffset dy="2"/>
<feGaussianBlur stdDeviation="5"/>
<feComposite in2="hardAlpha" operator="out"/>
<feColorMatrix type="matrix" values="0 0 0 0 0 0 0 0 0 1 0 0 0 0 0 0 0 0 0.5 0"/>
<feBlend mode="normal" in2="BackgroundImageFix" result="effect1_dropShadow_132_1077"/>
<feBlend mode="normal" in="SourceGraphic" in2="effect1_dropShadow_132_1077" result="shape"/>
</filter>
<clipPath id="clip0_132_1077">
<rect width="16" height="16" fill="white" transform="translate(0 0.967285)"/>
</clipPath>
</defs>
</svg>
