<svg width="24" height="25" viewBox="0 0 24 25" fill="none" xmlns="http://www.w3.org/2000/svg">
<path d="M18 22.7168H6V20.7168H18V22.7168ZM6 20.7168H4V18.7168H6V20.7168ZM20 20.7168H18V18.7168H20V20.7168ZM4 18.7168H2V6.7168H4V18.7168ZM16 18.7168H8V16.7168H16V18.7168ZM22 18.7168H20V8.7168H22V18.7168ZM8 16.7168H6V8.7168H8V16.7168ZM18 16.7168H16V12.7168H18V16.7168ZM14 14.7168H10V10.7168H14V14.7168ZM16 10.7168H14V8.7168H16V10.7168ZM12 8.7168H8V6.7168H12V8.7168ZM18 8.7168H16V6.7168H18V8.7168ZM6 6.7168H4V4.7168H6V6.7168ZM20 4.7168H22V6.7168H18V2.7168H20V4.7168ZM16 4.7168H6V2.7168H16V4.7168Z" fill="black"/>
</svg>
