<?xml version="1.0" encoding="UTF-8"?>
<svg id="Camada_1" xmlns="http://www.w3.org/2000/svg" version="1.1" viewBox="0 0 36 35">
  <!-- Generator: Adobe Illustrator 29.8.2, SVG Export Plug-In . SVG Version: 2.1.1 Build 3)  -->
  <defs>
    <style>
      .st0 {
        fill: lime;
      }
    </style>
  </defs>
  <path class="st0" d="M15.33,7.63h-1.33v.67h1.33v-.67Z"/>
  <path class="st0" d="M22,7.63h-1.33v.67h1.33v-.67Z"/>
  <path class="st0" d="M30.7,7.98v-1.27h-3.81v-2.54h-1.27v6.35h-2.54v-6.35h-1.27v2.54h-7.62v-2.54h-1.27v6.35h-2.54v-6.35h-1.27v2.54h-3.81v1.27h-1.27v21.58h1.27v1.27h25.39v-1.27h1.27V7.98h-1.27ZM29.43,11.79v3.81h-3.81v-3.81h3.81ZM29.43,21.94h-3.81v-3.81h3.81v3.81ZM29.43,28.29h-3.81v-3.81h3.81v3.81ZM6.57,24.48h3.81v3.81h-3.81v-3.81ZM6.57,18.13h3.81v3.81h-3.81v-3.81ZM23.08,21.94h-3.81v-3.81h3.81v3.81ZM16.73,21.94h-3.81v-3.81h3.81v3.81ZM12.92,24.48h3.81v3.81h-3.81v-3.81ZM19.27,24.48h3.81v3.81h-3.81v-3.81ZM23.08,15.6h-3.81v-3.81h3.81v3.81ZM16.73,11.79v3.81h-3.81v-3.81h3.81ZM10.38,15.6h-3.81v-3.81h3.81v3.81Z"/>
</svg>