<svg width="892" height="914" viewBox="0 0 892 914" fill="none" xmlns="http://www.w3.org/2000/svg">
<circle cx="471" cy="502.217" r="401.5" stroke="#00FF00" stroke-width="5" stroke-linecap="round" stroke-linejoin="round" stroke-dasharray="4 20"/>
<circle cx="468" cy="502.217" r="279.5" stroke="#00FF00" stroke-width="5" stroke-linecap="round" stroke-linejoin="round" stroke-dasharray="4 20"/>
<circle cx="706" cy="796.217" r="115" fill="white" stroke="#00FF00" stroke-width="5"/>
<circle cx="154" cy="167.217" r="115" fill="white" stroke="#00FF00" stroke-width="5"/>
<circle cx="706" cy="796.217" r="97" fill="white" stroke="#00FF00"/>
<circle cx="154" cy="167.217" r="97" fill="white" stroke="#00FF00"/>
<circle cx="152" cy="618.217" r="149" fill="white" stroke="#00FF00" stroke-width="5"/>
<circle cx="151" cy="618.217" r="120" fill="white" stroke="#00FF00"/>
<path d="M634.373 844.717V828.877H642.077C644.029 828.893 645.469 829.269 646.397 830.005C647.325 830.725 647.789 831.773 647.789 833.149C647.789 834.045 647.525 834.821 646.997 835.477C646.469 836.117 645.661 836.525 644.573 836.701V836.725C645.789 836.885 646.693 837.309 647.285 837.997C647.893 838.669 648.197 839.485 648.197 840.445C648.197 841.805 647.717 842.861 646.757 843.613C645.797 844.349 644.357 844.717 642.437 844.717H634.373ZM638.357 841.813H641.741C642.493 841.813 643.053 841.661 643.421 841.357C643.789 841.053 643.973 840.613 643.973 840.037C643.973 839.477 643.789 839.053 643.421 838.765C643.053 838.461 642.493 838.309 641.741 838.309H638.357V841.813ZM638.357 835.357H641.357C642.829 835.357 643.565 834.781 643.565 833.629C643.565 832.477 642.829 831.901 641.357 831.901H638.357V835.357ZM671.086 844.717H666.838L665.734 841.141H660.31L659.182 844.717H655.03L660.598 828.877H665.542L671.086 844.717ZM661.078 838.333H664.966L663.022 831.925L661.078 838.333ZM693.208 828.877V844.717H688.624L683.704 836.149L682.504 833.797H682.48L682.576 836.725V844.717H678.928V828.877H683.512L688.432 837.445L689.632 839.797H689.656L689.56 836.869V828.877H693.208ZM717.093 828.877L709.653 837.781L709.389 837.157L705.621 841.741L704.829 838.405L712.509 828.877H717.093ZM706.845 828.877V844.717H702.717V828.877H706.845ZM710.997 834.109L717.381 844.717H712.701L707.901 836.413L710.997 834.109ZM729.485 828.877V844.717H725.357V828.877H729.485ZM753.278 828.877V844.717H748.694L743.774 836.149L742.574 833.797H742.55L742.646 836.725V844.717H738.998V828.877H743.582L748.502 837.445L749.702 839.797H749.726L749.63 836.869V828.877H753.278ZM769.339 844.957C767.931 844.957 766.675 844.645 765.571 844.021C764.483 843.397 763.635 842.477 763.027 841.261C762.419 840.045 762.115 838.565 762.115 836.821C762.115 835.109 762.435 833.645 763.075 832.429C763.715 831.213 764.627 830.277 765.811 829.621C767.011 828.965 768.419 828.637 770.035 828.637C771.827 828.637 773.275 828.965 774.379 829.621C775.483 830.261 776.339 831.285 776.947 832.693L773.131 834.205C772.923 833.389 772.555 832.797 772.027 832.429C771.499 832.061 770.843 831.877 770.059 831.877C769.275 831.877 768.603 832.069 768.043 832.453C767.483 832.821 767.059 833.373 766.771 834.109C766.483 834.829 766.339 835.725 766.339 836.797C766.339 837.917 766.483 838.853 766.771 839.605C767.075 840.357 767.515 840.917 768.091 841.285C768.683 841.637 769.411 841.813 770.275 841.813C770.739 841.813 771.163 841.757 771.547 841.645C771.931 841.533 772.267 841.373 772.555 841.165C772.843 840.941 773.067 840.669 773.227 840.349C773.387 840.013 773.467 839.621 773.467 839.173V838.933H769.843V836.173H776.971V844.717H774.163L773.851 840.997L774.523 841.573C774.187 842.661 773.579 843.501 772.699 844.093C771.835 844.669 770.715 844.957 769.339 844.957Z" fill="black"/>
<path d="M85.5302 188.317C86.7568 188.317 87.8368 188.51 88.7702 188.897C89.7168 189.27 90.5368 189.823 91.2302 190.557L89.5702 192.777C88.9968 192.177 88.3768 191.73 87.7102 191.437C87.0568 191.13 86.3102 190.977 85.4702 190.977C84.9768 190.977 84.5768 191.03 84.2702 191.137C83.9635 191.243 83.7435 191.39 83.6102 191.577C83.4768 191.763 83.4102 191.977 83.4102 192.217C83.4102 192.497 83.5368 192.737 83.7902 192.937C84.0568 193.123 84.4835 193.283 85.0702 193.417L87.2902 193.917C88.6102 194.223 89.5768 194.67 90.1902 195.257C90.8035 195.843 91.1102 196.623 91.1102 197.597C91.1102 198.53 90.8702 199.323 90.3902 199.977C89.9102 200.617 89.2502 201.103 88.4102 201.437C87.5702 201.757 86.6102 201.917 85.5302 201.917C84.6502 201.917 83.8102 201.823 83.0102 201.637C82.2102 201.437 81.4902 201.157 80.8502 200.797C80.2102 200.437 79.6702 200.023 79.2302 199.557L80.8902 197.257C81.2235 197.643 81.6302 197.99 82.1102 198.297C82.6035 198.59 83.1368 198.823 83.7102 198.997C84.2968 199.17 84.8902 199.257 85.4902 199.257C85.9568 199.257 86.3435 199.21 86.6502 199.117C86.9702 199.023 87.2035 198.883 87.3502 198.697C87.4968 198.51 87.5702 198.29 87.5702 198.037C87.5702 197.757 87.4702 197.523 87.2702 197.337C87.0702 197.137 86.6902 196.97 86.1302 196.837L83.6902 196.297C82.9435 196.123 82.2768 195.897 81.6902 195.617C81.1168 195.323 80.6635 194.937 80.3302 194.457C79.9968 193.963 79.8302 193.35 79.8302 192.617C79.8302 191.79 80.0568 191.057 80.5102 190.417C80.9635 189.763 81.6168 189.25 82.4702 188.877C83.3235 188.503 84.3435 188.317 85.5302 188.317ZM98.2608 201.717V188.517H108.541V191.177H101.701V193.857H107.141V196.357H101.701V199.057H108.801V201.717H98.2608ZM126.978 188.517V191.177H122.678V201.717H119.238V191.177H114.918V188.517H126.978ZM145.044 188.517V191.177H140.744V201.717H137.304V191.177H132.984V188.517H145.044ZM155.451 188.517V201.717H152.011V188.517H155.451ZM175.278 188.517V201.717H171.458L167.358 194.577L166.358 192.617H166.338L166.418 195.057V201.717H163.378V188.517H167.198L171.298 195.657L172.298 197.617H172.318L172.238 195.177V188.517H175.278ZM188.662 201.917C187.489 201.917 186.442 201.657 185.522 201.137C184.616 200.617 183.909 199.85 183.402 198.837C182.896 197.823 182.642 196.59 182.642 195.137C182.642 193.71 182.909 192.49 183.442 191.477C183.976 190.463 184.736 189.683 185.722 189.137C186.722 188.59 187.896 188.317 189.242 188.317C190.736 188.317 191.942 188.59 192.862 189.137C193.782 189.67 194.496 190.523 195.002 191.697L191.822 192.957C191.649 192.277 191.342 191.783 190.902 191.477C190.462 191.17 189.916 191.017 189.262 191.017C188.609 191.017 188.049 191.177 187.582 191.497C187.116 191.803 186.762 192.263 186.522 192.877C186.282 193.477 186.162 194.223 186.162 195.117C186.162 196.05 186.282 196.83 186.522 197.457C186.776 198.083 187.142 198.55 187.622 198.857C188.116 199.15 188.722 199.297 189.442 199.297C189.829 199.297 190.182 199.25 190.502 199.157C190.822 199.063 191.102 198.93 191.342 198.757C191.582 198.57 191.769 198.343 191.902 198.077C192.036 197.797 192.102 197.47 192.102 197.097V196.897H189.082V194.597H195.022V201.717H192.682L192.422 198.617L192.982 199.097C192.702 200.003 192.196 200.703 191.462 201.197C190.742 201.677 189.809 201.917 188.662 201.917ZM207.815 188.317C209.042 188.317 210.122 188.51 211.055 188.897C212.002 189.27 212.822 189.823 213.515 190.557L211.855 192.777C211.282 192.177 210.662 191.73 209.995 191.437C209.342 191.13 208.595 190.977 207.755 190.977C207.262 190.977 206.862 191.03 206.555 191.137C206.249 191.243 206.029 191.39 205.895 191.577C205.762 191.763 205.695 191.977 205.695 192.217C205.695 192.497 205.822 192.737 206.075 192.937C206.342 193.123 206.769 193.283 207.355 193.417L209.575 193.917C210.895 194.223 211.862 194.67 212.475 195.257C213.089 195.843 213.395 196.623 213.395 197.597C213.395 198.53 213.155 199.323 212.675 199.977C212.195 200.617 211.535 201.103 210.695 201.437C209.855 201.757 208.895 201.917 207.815 201.917C206.935 201.917 206.095 201.823 205.295 201.637C204.495 201.437 203.775 201.157 203.135 200.797C202.495 200.437 201.955 200.023 201.515 199.557L203.175 197.257C203.509 197.643 203.915 197.99 204.395 198.297C204.889 198.59 205.422 198.823 205.995 198.997C206.582 199.17 207.175 199.257 207.775 199.257C208.242 199.257 208.629 199.21 208.935 199.117C209.255 199.023 209.489 198.883 209.635 198.697C209.782 198.51 209.855 198.29 209.855 198.037C209.855 197.757 209.755 197.523 209.555 197.337C209.355 197.137 208.975 196.97 208.415 196.837L205.975 196.297C205.229 196.123 204.562 195.897 203.975 195.617C203.402 195.323 202.949 194.937 202.615 194.457C202.282 193.963 202.115 193.35 202.115 192.617C202.115 191.79 202.342 191.057 202.795 190.417C203.249 189.763 203.902 189.25 204.755 188.877C205.609 188.503 206.629 188.317 207.815 188.317ZM227.794 187.477L222.194 203.117H219.034L224.634 187.477H227.794ZM99.2842 227.717H95.7442L94.8242 224.737H90.3042L89.3642 227.717H85.9042L90.5442 214.517H94.6642L99.2842 227.717ZM90.9442 222.397H94.1842L92.5642 217.057L90.9442 222.397ZM109.259 214.517V227.717H105.819V214.517H109.259ZM135.509 213.477L129.909 229.117H126.749L132.349 213.477H135.509ZM164.538 227.717H160.998L160.078 224.737H155.558L154.618 227.717H151.158L155.798 214.517H159.918L164.538 227.717ZM156.198 222.397H159.438L157.818 217.057L156.198 222.397ZM182.066 214.517V222.337C182.066 224.203 181.566 225.603 180.566 226.537C179.58 227.457 178.113 227.917 176.166 227.917C174.233 227.917 172.766 227.457 171.766 226.537C170.766 225.603 170.266 224.203 170.266 222.337V214.517H173.726V222.397C173.726 223.343 173.926 224.05 174.326 224.517C174.74 224.983 175.353 225.217 176.166 225.217C176.993 225.217 177.606 224.983 178.006 224.517C178.42 224.05 178.626 223.343 178.626 222.397V214.517H182.066ZM200.826 214.517V217.177H196.526V227.717H193.086V217.177H188.766V214.517H200.826ZM219.712 214.517V227.717H216.272V214.517H219.712ZM211.232 214.517V227.717H207.792V214.517H211.232ZM218.112 219.737V222.397H209.472V219.737H218.112Z" fill="black"/>
<path d="M399.223 580.557V597.717H394.751V580.557H399.223ZM429.392 580.557V597.717H425.44V589.839L425.57 584.561H425.518L421.28 597.717H417.666L413.428 584.561H413.376L413.506 589.839V597.717H409.528V580.557H415.898L418.602 589.293L419.564 592.933H419.616L420.604 589.319L423.282 580.557H429.392ZM447.57 580.557C448.974 580.557 450.17 580.782 451.158 581.233C452.146 581.683 452.9 582.333 453.42 583.183C453.94 584.032 454.2 585.063 454.2 586.277C454.2 587.49 453.94 588.521 453.42 589.371C452.9 590.22 452.146 590.87 451.158 591.321C450.17 591.771 448.974 591.997 447.57 591.997H444.164V597.717H439.692V580.557H447.57ZM446.868 588.643C447.804 588.643 448.506 588.452 448.974 588.071C449.459 587.672 449.702 587.074 449.702 586.277C449.702 585.479 449.459 584.89 448.974 584.509C448.506 584.11 447.804 583.911 446.868 583.911H444.164V588.643H446.868ZM478.561 580.557V590.723C478.561 593.149 477.911 594.969 476.611 596.183C475.328 597.379 473.422 597.977 470.891 597.977C468.378 597.977 466.471 597.379 465.171 596.183C463.871 594.969 463.221 593.149 463.221 590.723V580.557H467.719V590.801C467.719 592.031 467.979 592.95 468.499 593.557C469.036 594.163 469.834 594.467 470.891 594.467C471.966 594.467 472.763 594.163 473.283 593.557C473.82 592.95 474.089 592.031 474.089 590.801V580.557H478.561ZM492.99 594.259H501.596V597.717H488.518V580.557H492.99V594.259ZM517.367 580.297C518.961 580.297 520.365 580.548 521.579 581.051C522.809 581.536 523.875 582.255 524.777 583.209L522.619 586.095C521.873 585.315 521.067 584.734 520.201 584.353C519.351 583.954 518.381 583.755 517.289 583.755C516.647 583.755 516.127 583.824 515.729 583.963C515.33 584.101 515.044 584.292 514.871 584.535C514.697 584.777 514.611 585.055 514.611 585.367C514.611 585.731 514.775 586.043 515.105 586.303C515.451 586.545 516.006 586.753 516.769 586.927L519.655 587.577C521.371 587.975 522.627 588.556 523.425 589.319C524.222 590.081 524.621 591.095 524.621 592.361C524.621 593.574 524.309 594.605 523.685 595.455C523.061 596.287 522.203 596.919 521.111 597.353C520.019 597.769 518.771 597.977 517.367 597.977C516.223 597.977 515.131 597.855 514.091 597.613C513.051 597.353 512.115 596.989 511.283 596.521C510.451 596.053 509.749 595.515 509.177 594.909L511.335 591.919C511.768 592.421 512.297 592.872 512.921 593.271C513.562 593.652 514.255 593.955 515.001 594.181C515.763 594.406 516.535 594.519 517.315 594.519C517.921 594.519 518.424 594.458 518.823 594.337C519.239 594.215 519.542 594.033 519.733 593.791C519.923 593.548 520.019 593.262 520.019 592.933C520.019 592.569 519.889 592.265 519.629 592.023C519.369 591.763 518.875 591.546 518.147 591.373L514.975 590.671C514.004 590.445 513.137 590.151 512.375 589.787C511.629 589.405 511.04 588.903 510.607 588.279C510.173 587.637 509.957 586.84 509.957 585.887C509.957 584.812 510.251 583.859 510.841 583.027C511.43 582.177 512.279 581.51 513.389 581.025C514.498 580.539 515.824 580.297 517.367 580.297ZM533.917 597.717V580.557H547.281V584.015H538.389V587.499H545.461V590.749H538.389V594.259H547.619V597.717H533.917ZM560.589 580.557V589.137H557.989V580.557H560.589ZM563.241 580.557V582.481H555.337V580.557H563.241ZM575.201 580.557V589.137H572.653V585.757L572.783 583.105H572.731L572.237 584.925L570.833 589.137H568.753L567.349 584.899L566.855 583.105H566.777L566.933 585.757V589.137H564.359V580.557H568.077L569.351 584.483L569.793 586.147H569.845L570.287 584.483L571.587 580.557H575.201Z" fill="black"/>
<circle cx="705.5" cy="186.717" r="186" fill="#00FF00"/>
<circle cx="705.5" cy="186.717" r="163.5" stroke="white"/>
<path d="M665.326 283.717V267.877H677.662V271.069H669.454V274.285H675.982V277.285H669.454V280.525H677.974V283.717H665.326ZM693.187 267.877C695.667 267.877 697.563 268.565 698.875 269.941C700.203 271.317 700.867 273.269 700.867 275.797C700.867 278.325 700.203 280.277 698.875 281.653C697.563 283.029 695.667 283.717 693.187 283.717H686.467V267.877H693.187ZM692.779 280.597C694.123 280.597 695.099 280.197 695.707 279.397C696.331 278.581 696.643 277.381 696.643 275.797C696.643 274.213 696.331 273.021 695.707 272.221C695.099 271.405 694.123 270.997 692.779 270.997H690.595V280.597H692.779ZM716.245 283.957C714.837 283.957 713.581 283.645 712.477 283.021C711.389 282.397 710.541 281.477 709.933 280.261C709.325 279.045 709.021 277.565 709.021 275.821C709.021 274.109 709.341 272.645 709.981 271.429C710.621 270.213 711.533 269.277 712.717 268.621C713.917 267.965 715.325 267.637 716.941 267.637C718.733 267.637 720.181 267.965 721.285 268.621C722.389 269.261 723.245 270.285 723.853 271.693L720.037 273.205C719.829 272.389 719.461 271.797 718.933 271.429C718.405 271.061 717.749 270.877 716.965 270.877C716.181 270.877 715.509 271.069 714.949 271.453C714.389 271.821 713.965 272.373 713.677 273.109C713.389 273.829 713.245 274.725 713.245 275.797C713.245 276.917 713.389 277.853 713.677 278.605C713.981 279.357 714.421 279.917 714.997 280.285C715.589 280.637 716.317 280.813 717.181 280.813C717.645 280.813 718.069 280.757 718.453 280.645C718.837 280.533 719.173 280.373 719.461 280.165C719.749 279.941 719.973 279.669 720.133 279.349C720.293 279.013 720.373 278.621 720.373 278.173V277.933H716.749V275.173H723.877V283.717H721.069L720.757 279.997L721.429 280.573C721.093 281.661 720.485 282.501 719.605 283.093C718.741 283.669 717.621 283.957 716.245 283.957ZM733.037 283.717V267.877H745.373V271.069H737.165V274.285H743.693V277.285H737.165V280.525H745.685V283.717H733.037Z" fill="black"/>
<path d="M807.026 221.717H767.026V201.717H742.026V141.717H767.026V121.717H807.026V141.717H832.026V201.717H807.026V221.717ZM752.026 191.717H822.026V151.717H752.026V191.717ZM792.026 171.717H802.026V181.717H782.026V161.717H792.026V171.717Z" fill="black"/>
<path d="M586.389 149.217H593.722V166.717H586.389V149.217Z" fill="black"/>
<path d="M679.278 149.217H686.611V166.717H679.278V149.217Z" fill="black"/>
<path d="M586.389 176.717H593.722V194.217H586.389V176.717Z" fill="black"/>
<path d="M649.944 176.717H657.278V194.217H649.944V176.717Z" fill="black"/>
<path d="M615.722 176.717H623.056V194.217H615.722V176.717Z" fill="black"/>
<path d="M679.278 176.717H686.611V194.217H679.278V176.717Z" fill="black"/>
<path d="M615.722 194.217V201.717H593.722V194.217H615.722Z" fill="black"/>
<path d="M679.278 194.217V201.717H657.278V194.217H679.278Z" fill="black"/>
<path d="M615.722 169.217V176.717H593.722V169.217H615.722Z" fill="black"/>
<path d="M679.278 169.217V176.717H657.278V169.217H679.278Z" fill="black"/>
<path d="M581.5 166.717H586.389V176.717H581.5V166.717Z" fill="black"/>
<path d="M686.611 166.717H691.5V176.717H686.611V166.717Z" fill="black"/>
<path d="M593.722 141.717H601.056V149.217H593.722V141.717Z" fill="black"/>
<path d="M671.944 141.717H679.278V149.217H671.944V141.717Z" fill="black"/>
<path d="M623.056 169.217H630.389V176.717H623.056V169.217Z" fill="black"/>
<path d="M642.611 169.217H649.944V176.717H642.611V169.217Z" fill="black"/>
<path d="M630.389 161.717H642.611V169.217H630.389V161.717Z" fill="black"/>
<path d="M564.177 451.891H558.016V476.412H564.177V451.891Z" fill="black"/>
<path d="M533.371 476.412H527.21V482.543H533.371V476.412Z" fill="black"/>
<path d="M570.339 439.63V433.499H564.177V427.369H558.016V415.108H551.855V408.978H527.21V402.847H508.726V396.717H453.274V402.847H471.758V408.978H484.081V402.847H502.565V408.978H521.048V421.239H514.887V433.499H508.726V439.63H496.403V445.76H514.887V439.63H521.048V427.369H527.21V421.239H533.371V415.108H545.694V421.239H551.855V439.63H564.177V445.76H570.339V482.543H564.177V488.673H539.532V500.934H533.371V507.065H514.887V500.934H508.726V488.673H521.048V494.804H527.21V482.543H508.726V476.412H521.048V470.282H527.21V464.152H533.371V458.021H527.21V451.891H521.048V464.152H514.887V470.282H508.726V451.891H502.565V488.673H496.403V500.934H502.565V507.065H508.726V513.195H490.242V507.065H484.081V519.325H477.919V525.456H490.242V519.325H514.887V513.195H521.048V519.325H533.371V513.195H539.532V507.065H545.694V500.934H551.855V494.804H570.339V488.673H576.5V439.63H570.339Z" fill="black"/>
<path d="M496.403 421.239H502.565V415.108H490.242V433.499H477.919V458.021H484.081V439.63H496.403V421.239Z" fill="black"/>
<path d="M539.532 458.021V470.282H551.855V464.152H545.694V433.499H539.532V427.369H533.371V439.63H539.532V451.891H533.371V458.021H539.532Z" fill="black"/>
<path d="M484.081 500.934H471.758V507.065H484.081V500.934Z" fill="black"/>
<path d="M434.79 458.021H440.952V445.76H434.79V458.021Z" fill="black"/>
<path d="M490.242 482.543V458.021H484.081V482.543H477.919V488.673H496.403V482.543H490.242Z" fill="black"/>
<path d="M471.758 470.282H459.435V476.412H465.597V482.543H459.435V488.673H434.79V494.804H471.758V470.282Z" fill="black"/>
<path d="M539.532 470.282H533.371V476.412H539.532V470.282Z" fill="black"/>
<path d="M447.113 507.065V519.325H453.274V513.195H459.435V507.065H447.113Z" fill="black"/>
<path d="M416.306 525.456H410.145V531.586H416.306V525.456Z" fill="black"/>
<path d="M459.435 531.586H440.952V525.456H434.79V507.065H428.629V500.934H422.468V513.195H428.629V531.586H416.306V537.717H465.597V531.586H477.919V525.456H459.435V531.586Z" fill="black"/>
<path d="M459.435 439.63V451.891H465.597V433.499H453.274V439.63H459.435Z" fill="black"/>
<path d="M434.79 464.152V476.412H447.113V470.282H459.435V464.152H434.79Z" fill="black"/>
<path d="M428.629 439.63H422.468V451.891H416.306V445.76H410.145V458.021H416.306V494.804H410.145V488.673H403.984V500.934H422.468V482.543H428.629V476.412H422.468V458.021H428.629V445.76H434.79V433.499H428.629V439.63Z" fill="black"/>
<path d="M416.306 519.325V513.195H403.984V507.065H397.823V500.934H391.661V476.412H397.823V470.282H403.984V476.412H410.145V464.152H397.823V451.891H403.984V439.63H410.145V433.499H416.306V427.369H422.468V421.239H428.629V415.108H434.79V408.978H422.468V415.108H416.306V421.239H410.145V427.369H403.984V433.499H397.823V445.76H391.661V470.282H385.5V507.065H391.661V513.195H397.823V519.325H403.984V525.456H410.145V519.325H416.306Z" fill="black"/>
<path d="M459.435 415.108H465.597V421.239H471.758V408.978H459.435V415.108Z" fill="black"/>
<path d="M447.113 421.239H440.952V415.108H434.79V433.499H440.952V427.369H453.274V421.239H459.435V415.108H447.113V421.239Z" fill="black"/>
<path d="M453.274 402.847H434.79V408.978H453.274V402.847Z" fill="black"/>
<path d="M62.3991 660.917H67.9671L68.9271 673.541V675.989H69.5031V673.541L70.4631 660.917H76.0311V677.717H73.1511V666.485L73.4391 662.645H72.8631L71.6151 677.717H66.8631L65.5671 662.645H64.9911L65.2791 666.485V677.717H62.3991V660.917ZM84.5344 660.917H95.1424V663.941H87.7024V667.781H94.8544V670.805H87.7024V674.693H95.4304V677.717H84.5344V660.917ZM116.294 677.717H113.126V672.677C113.126 672.293 113.022 671.981 112.814 671.741C112.622 671.501 112.294 671.381 111.83 671.381H108.182V677.717H105.014V660.917H111.446C112.31 660.917 113.07 661.037 113.726 661.277C114.382 661.517 114.926 661.853 115.358 662.285C115.806 662.701 116.142 663.189 116.366 663.749C116.606 664.309 116.726 664.909 116.726 665.549V666.125C116.726 666.813 116.542 667.461 116.174 668.069C115.806 668.661 115.238 669.117 114.47 669.437V669.869C115.03 669.933 115.47 670.149 115.79 670.517C116.126 670.885 116.294 671.349 116.294 671.909V677.717ZM108.182 668.357H111.206C111.974 668.357 112.558 668.181 112.958 667.829C113.358 667.461 113.558 666.949 113.558 666.293V666.005C113.558 665.445 113.358 664.965 112.958 664.565C112.558 664.149 111.974 663.941 111.206 663.941H108.182V668.357ZM131.349 675.173C131.957 675.173 132.453 675.085 132.837 674.909C133.237 674.717 133.541 674.469 133.749 674.165C133.973 673.845 134.125 673.485 134.205 673.085C134.285 672.669 134.325 672.245 134.325 671.813V671.381H137.493V671.813C137.493 673.813 136.965 675.357 135.909 676.445C134.869 677.517 133.349 678.053 131.349 678.053C129.429 678.053 127.909 677.469 126.789 676.301C125.669 675.133 125.109 673.429 125.109 671.189V667.445C125.109 666.373 125.253 665.413 125.541 664.565C125.829 663.701 126.245 662.981 126.789 662.405C127.333 661.813 127.989 661.365 128.757 661.061C129.525 660.741 130.389 660.581 131.349 660.581C132.341 660.581 133.221 660.725 133.989 661.013C134.757 661.301 135.397 661.717 135.909 662.261C136.437 662.805 136.829 663.461 137.085 664.229C137.357 664.997 137.493 665.861 137.493 666.821V667.253H134.325V666.821C134.325 666.421 134.277 666.021 134.181 665.621C134.085 665.221 133.925 664.861 133.701 664.541C133.477 664.221 133.173 663.965 132.789 663.773C132.405 663.565 131.925 663.461 131.349 663.461C130.821 663.461 130.365 663.565 129.981 663.773C129.597 663.965 129.277 664.237 129.021 664.589C128.765 664.925 128.573 665.325 128.445 665.789C128.333 666.237 128.277 666.709 128.277 667.205V671.429C128.277 671.973 128.333 672.477 128.445 672.941C128.557 673.389 128.733 673.781 128.973 674.117C129.213 674.453 129.525 674.717 129.909 674.909C130.309 675.085 130.789 675.173 131.349 675.173ZM146.116 660.917H149.284V667.781H154.708V660.917H157.876V677.717H154.708V670.805H149.284V677.717H146.116V660.917ZM175.548 674.117H169.836L169.02 677.717H165.708L169.716 660.917H175.668L179.676 677.717H176.364L175.548 674.117ZM170.508 671.093H174.852L172.908 662.501H172.476L170.508 671.093ZM195.667 676.133H196.099V660.917H199.267V677.717H193.075L191.107 662.501H190.675V677.717H187.507V660.917H193.699L195.667 676.133ZM208.034 660.917H220.13V663.941H215.666V677.717H212.498V663.941H208.034V660.917ZM237.658 666.053C237.658 665.381 237.394 664.797 236.866 664.301C236.354 663.805 235.626 663.557 234.682 663.557C233.882 663.557 233.25 663.725 232.786 664.061C232.322 664.381 232.09 664.821 232.09 665.381C232.09 665.669 232.146 665.933 232.258 666.173C232.37 666.397 232.562 666.605 232.834 666.797C233.122 666.973 233.49 667.133 233.938 667.277C234.402 667.421 234.986 667.557 235.69 667.685C237.45 668.005 238.794 668.541 239.722 669.293C240.65 670.045 241.114 671.157 241.114 672.629V672.917C241.114 673.701 240.97 674.413 240.682 675.053C240.41 675.677 240.01 676.213 239.482 676.661C238.954 677.109 238.314 677.453 237.562 677.693C236.81 677.933 235.962 678.053 235.018 678.053C233.914 678.053 232.938 677.901 232.09 677.597C231.258 677.277 230.562 676.845 230.002 676.301C229.442 675.741 229.018 675.093 228.73 674.357C228.442 673.605 228.298 672.789 228.298 671.909V671.189H231.466V671.765C231.466 672.773 231.754 673.581 232.33 674.189C232.922 674.781 233.834 675.077 235.066 675.077C236.026 675.077 236.738 674.869 237.202 674.453C237.666 674.037 237.898 673.541 237.898 672.965C237.898 672.693 237.85 672.437 237.754 672.197C237.658 671.941 237.49 671.717 237.25 671.525C237.01 671.317 236.682 671.133 236.266 670.973C235.85 670.813 235.322 670.677 234.682 670.565C233.834 670.421 233.058 670.237 232.354 670.013C231.65 669.773 231.034 669.461 230.506 669.077C229.994 668.693 229.594 668.213 229.306 667.637C229.018 667.061 228.874 666.357 228.874 665.525V665.381C228.874 664.693 229.01 664.061 229.282 663.485C229.57 662.893 229.962 662.381 230.458 661.949C230.97 661.517 231.578 661.181 232.282 660.941C233.002 660.701 233.802 660.581 234.682 660.581C235.674 660.581 236.554 660.725 237.322 661.013C238.09 661.285 238.73 661.661 239.242 662.141C239.77 662.621 240.162 663.173 240.418 663.797C240.69 664.421 240.826 665.077 240.826 665.765V666.629H237.658V666.053Z" fill="black"/>
<path d="M140.5 631.383H144.167V638.717H140.5V642.383H133.167V638.717H129.5V631.383H133.167V627.717H140.5V631.383Z" fill="black"/>
<path d="M180.833 631.383H184.5V638.717H180.833V642.383H173.5V638.717H169.833V631.383H173.5V627.717H180.833V631.383Z" fill="black"/>
<path d="M122.167 572.717V569.05H111.167V576.383H122.167V587.383H125.833V605.717H129.5V620.383H133.167V624.05H180.833V616.717H136.833V609.383H180.833V605.717H184.5V594.717H188.167V583.717H191.833V572.717H122.167ZM180.833 583.717V594.717H177.167V602.05H133.167V587.383H129.5V580.05H184.5V583.717H180.833Z" fill="black"/>
<path d="M712.5 745.717V752.717H709V756.217H702V752.717H698.5V745.717H702V742.217H709V745.717H712.5Z" fill="#22222A"/>
<path d="M737 801.717V798.217H733.5V766.717H726.5V798.217H719.5V766.717H712.5V798.217H698.5V766.717H691.5V798.217H684.5V766.717H677.5V798.217H674V801.717H667V808.717H670.5V812.217H740.5V808.717H744V801.717H737ZM737 808.717H674V805.217H677.5V801.717H733.5V805.217H737V808.717Z" fill="#22222A"/>
<path d="M740.5 756.217V759.717H737V763.217H674V759.717H670.5V756.217H677.5V759.717H733.5V756.217H740.5Z" fill="#22222A"/>
<path d="M744 749.217V756.217H740.5V752.717H730V749.217H723V745.717H716V742.217H709V738.717H702V742.217H695V745.717H688V749.217H681V752.717H670.5V756.217H667V749.217H677.5V745.717H684.5V742.217H691.5V738.717H698.5V735.217H712.5V738.717H719.5V742.217H726.5V745.717H733.5V749.217H744Z" fill="#22222A"/>
<path d="M170.5 167.217H132.5V110.217H170.5V167.217ZM138.833 160.884H164.167V116.55H157.833V122.884H145.167V116.55H138.833V160.884ZM154.667 154.55H148.333V148.217H154.667V154.55Z" fill="black"/>
</svg>
