<svg width="24" height="25" viewBox="0 0 24 25" fill="none" xmlns="http://www.w3.org/2000/svg">
<path d="M22 22.875H11V23.875H22V22.875Z" fill="black"/>
<path d="M23 10.875H22V22.875H23V10.875Z" fill="black"/>
<path d="M22 9.875H11V10.875H22V9.875Z" fill="black"/>
<path d="M22 5.875V6.875H21V7.875H20V8.875H18V7.875H17V6.875H16V5.875H18V4.875H17V3.875H16V2.875H19V3.875H20V5.875H22Z" fill="black"/>
<path d="M20 16.875V14.875H19V13.875H18V12.875H17V11.875H16V12.875H15V13.875H14V14.875H13V16.875H12V21.875H14V18.875H19V21.875H21V16.875H20ZM19 17.875H14V16.875H15V14.875H18V16.875H19V17.875Z" fill="black"/>
<path d="M11 10.875H10V22.875H11V10.875Z" fill="black"/>
<path d="M14 2.875H13V8.875H14V2.875Z" fill="black"/>
<path d="M13 1.875H2V2.875H13V1.875Z" fill="black"/>
<path d="M2 2.875H1V14.875H2V2.875Z" fill="black"/>
<path d="M9 14.875H2V15.875H9V14.875Z" fill="black"/>
<path d="M12 4.875V3.875H3V4.875H7V6.875H6V5.875H4V6.875H3V10.875H4V11.875H6V10.875H7V13.875H8V8.875H9V7.875H11V8.875H12V6.875H11V5.875H9V6.875H8V4.875H12ZM7 8.875H6V9.875H4V7.875H7V8.875Z" fill="black"/>
<path d="M6 19.875V20.875H7V21.875H8V22.875H5V21.875H4V19.875H2V18.875H3V17.875H4V16.875H6V17.875H7V18.875H8V19.875H6Z" fill="black"/>
</svg>
