<svg width="24" height="25" viewBox="0 0 24 25" fill="none" xmlns="http://www.w3.org/2000/svg">
<path d="M4 5.875H3V4.875H4V3.875H5V4.875H6V5.875H7V6.875H8V7.875H7V8.875H6V7.875H5V6.875H4V5.875Z" fill="black"/>
<path d="M6 11.875H1V13.875H6V11.875Z" fill="black"/>
<path d="M7 17.875H8V18.875H7V19.875H6V20.875H5V21.875H4V20.875H3V19.875H4V18.875H5V17.875H6V16.875H7V17.875Z" fill="black"/>
<path d="M13 18.875H11V23.875H13V18.875Z" fill="black"/>
<path d="M13 1.875H11V6.875H13V1.875Z" fill="black"/>
<path d="M23 11.875H18V13.875H23V11.875Z" fill="black"/>
<path d="M17 7.875H16V6.875H17V5.875H18V4.875H19V3.875H20V4.875H21V5.875H20V6.875H19V7.875H18V8.875H17V7.875Z" fill="black"/>
<path d="M21 19.875V20.875H20V21.875H19V20.875H18V19.875H17V18.875H16V17.875H17V16.875H18V17.875H19V18.875H20V19.875H21Z" fill="black"/>
<path d="M16 14.875H17V10.875H16V8.875H14V7.875H10V8.875H8V10.875H7V14.875H8V16.875H10V17.875H14V16.875H16V14.875ZM15 14.875H14V15.875H10V14.875H9V10.875H10V9.875H14V10.875H15V14.875Z" fill="black"/>
</svg>
