<svg width="24" height="25" viewBox="0 0 24 25" fill="none" xmlns="http://www.w3.org/2000/svg">
<path d="M7 7.875H5V6.875H4V4.875H5V3.875H7V4.875H8V6.875H7V7.875Z" fill="black"/>
<path d="M5 11.875H6V14.875H5V15.875H2V14.875H1V11.875H2V10.875H5V11.875Z" fill="black"/>
<path d="M10 8.875H9V9.875H10V8.875Z" fill="black"/>
<path d="M16 15.875H15V16.875H16V15.875Z" fill="black"/>
<path d="M18 8.875H17V9.875H18V8.875Z" fill="black"/>
<path d="M9 7.875H8V8.875H9V7.875Z" fill="black"/>
<path d="M8 12.875H7V13.875H8V12.875Z" fill="black"/>
<path d="M16 14.875V11.875H15V10.875H14V9.875H11V10.875H10V11.875H9V14.875H10V15.875H11V16.875H14V15.875H15V14.875H16ZM11 14.875V11.875H14V14.875H11Z" fill="black"/>
<path d="M17 9.875H16V10.875H17V9.875Z" fill="black"/>
<path d="M17 16.875H16V17.875H17V16.875Z" fill="black"/>
<path d="M21 18.875H22V21.875H21V22.875H18V21.875H17V18.875H18V17.875H21V18.875Z" fill="black"/>
<path d="M22 5.875V7.875H21V8.875H19V7.875H18V5.875H19V4.875H21V5.875H22Z" fill="black"/>
</svg>
