<svg width="16" height="17" viewBox="0 0 16 17" fill="none" xmlns="http://www.w3.org/2000/svg">
<g clip-path="url(#clip0_132_1061)">
<g filter="url(#filter0_d_132_1061)">
<path d="M10 6.30062V7.63395H9.33333V8.30062H8.66667V8.96729H7.33333V8.30062H6.66667V7.63395H6V6.30062H6.66667V5.63395H7.33333V4.96729H8.66667V5.63395H9.33333V6.30062H10Z" fill="#00FF00"/>
</g>
<g filter="url(#filter1_d_132_1061)">
<path d="M12.6667 4.96712V3.63379H12.0001V2.96712H11.3334V2.30046H10.0001V1.63379H6.00008V2.30046H4.66675V2.96712H4.00008V3.63379H3.33341V4.96712H2.66675V8.96712H3.33341V10.3005H4.00008V10.9671H4.66675V12.3005H5.33341V12.9671H6.00008V14.3005H6.66675V14.9671H7.33341V16.3005H8.66675V14.9671H9.33341V14.3005H10.0001V12.9671H10.6667V12.3005H11.3334V10.9671H12.0001V10.3005H12.6667V8.96712H13.3334V4.96712H12.6667ZM11.3334 8.96712V10.3005H10.6667V10.9671H10.0001V12.3005H9.33341V12.9671H8.66675V14.3005H7.33341V12.9671H6.66675V12.3005H6.00008V10.9671H5.33341V10.3005H4.66675V8.96712H4.00008V4.96712H4.66675V3.63379H6.00008V2.96712H10.0001V3.63379H11.3334V4.96712H12.0001V8.96712H11.3334Z" fill="#00FF00"/>
</g>
</g>
<defs>
<filter id="filter0_d_132_1061" x="-4" y="-3.03271" width="24" height="24" filterUnits="userSpaceOnUse" color-interpolation-filters="sRGB">
<feFlood flood-opacity="0" result="BackgroundImageFix"/>
<feColorMatrix in="SourceAlpha" type="matrix" values="0 0 0 0 0 0 0 0 0 0 0 0 0 0 0 0 0 0 127 0" result="hardAlpha"/>
<feOffset dy="2"/>
<feGaussianBlur stdDeviation="5"/>
<feComposite in2="hardAlpha" operator="out"/>
<feColorMatrix type="matrix" values="0 0 0 0 0 0 0 0 0 1 0 0 0 0 0 0 0 0 0.5 0"/>
<feBlend mode="normal" in2="BackgroundImageFix" result="effect1_dropShadow_132_1061"/>
<feBlend mode="normal" in="SourceGraphic" in2="effect1_dropShadow_132_1061" result="shape"/>
</filter>
<filter id="filter1_d_132_1061" x="-7.33325" y="-6.36621" width="30.6667" height="34.6665" filterUnits="userSpaceOnUse" color-interpolation-filters="sRGB">
<feFlood flood-opacity="0" result="BackgroundImageFix"/>
<feColorMatrix in="SourceAlpha" type="matrix" values="0 0 0 0 0 0 0 0 0 0 0 0 0 0 0 0 0 0 127 0" result="hardAlpha"/>
<feOffset dy="2"/>
<feGaussianBlur stdDeviation="5"/>
<feComposite in2="hardAlpha" operator="out"/>
<feColorMatrix type="matrix" values="0 0 0 0 0 0 0 0 0 1 0 0 0 0 0 0 0 0 0.5 0"/>
<feBlend mode="normal" in2="BackgroundImageFix" result="effect1_dropShadow_132_1061"/>
<feBlend mode="normal" in="SourceGraphic" in2="effect1_dropShadow_132_1061" result="shape"/>
</filter>
<clipPath id="clip0_132_1061">
<rect width="16" height="16" fill="white" transform="translate(0 0.967285)"/>
</clipPath>
</defs>
</svg>
