<svg width="24" height="25" viewBox="0 0 24 25" fill="none" xmlns="http://www.w3.org/2000/svg">
<path d="M7 2.7168V4.7168H17V2.7168H7ZM17 4.7168V6.7168H19V4.7168H17ZM19 6.7168V14.7168H21V6.7168H19ZM19 14.7168H11V16.7168H19V14.7168ZM11 16.7168H9V18.7168H11V16.7168ZM11 18.7168V20.7168H13V18.7168H11ZM11 20.7168H7V22.7168H11V20.7168ZM7 20.7168V18.7168H5V20.7168H7ZM5 18.7168V6.7168H3V18.7168H5ZM5 6.7168H7V4.7168H5V6.7168ZM9 6.7168V8.7168H11V6.7168H9ZM11 8.7168V10.7168H13V8.7168H11ZM13 8.7168H15V6.7168H13V8.7168ZM15 8.7168V12.7168H17V8.7168H15ZM9 8.7168H7V12.7168H9V8.7168Z" fill="black"/>
</svg>
