<?xml version="1.0" encoding="UTF-8"?>
<svg id="Camada_1" xmlns="http://www.w3.org/2000/svg" version="1.1" viewBox="0 0 42 43">
  <!-- Generator: Adobe Illustrator 29.8.2, SVG Export Plug-In . SVG Version: 2.1.1 Build 3)  -->
  <defs>
    <style>
      .st0 {
        fill: lime;
      }
    </style>
  </defs>
  <path class="st0" d="M14.5,10.12v3.25h-1.63v1.63h-3.25v-1.63h-1.63v-3.25h1.63v-1.63h3.25v1.63h1.63Z"/>
  <path class="st0" d="M37.26,23.13v-1.63h-1.63v-1.63h-1.63v-1.63h-1.63v-1.63h-1.63v-1.63h-1.63v-1.63h-1.63v-1.63h-1.63v-1.63h-1.63v-1.63h-1.63v-1.63h-1.63v-1.63h-1.63v-1.63H4.74v1.63h-1.63v14.63h1.63v1.63h1.63v1.63h1.63v1.63h1.63v1.63h1.63v1.63h1.63v1.63h1.63v1.63h1.63v1.63h1.63v1.63h1.63v1.63h1.63v1.63h1.63v1.63h3.25v-1.63h1.63v-1.63h1.63v-1.63h1.63v-1.63h1.63v-1.63h1.63v-1.63h1.63v-1.63h1.63v-1.63h1.63v-3.25h-1.63ZM6.37,6.87h11.38v1.63h1.63v1.63h1.63v1.63h1.63v1.63h1.63v1.63h1.63v1.63h1.63v1.63h1.63v1.63h1.63v1.63h1.63v1.63h1.63v3.25h-1.63v1.63h-1.63v1.63h-1.63v1.63h-1.63v1.63h-1.63v1.63h-3.25v-1.63h-1.63v-1.63h-1.63v-1.63h-1.63v-1.63h-1.63v-1.63h-1.63v-1.63h-1.63v-1.63h-1.63v-1.63h-1.63v-1.63h-1.63v-1.63h-1.63V6.87Z"/>
</svg>