<svg width="24" height="25" viewBox="0 0 24 25" fill="none" xmlns="http://www.w3.org/2000/svg">
<path d="M2 20.7168H14V16.7168H16V22.7168H0V16.7168H2V20.7168ZM24 22.7168H18V20.7168H22V16.7168H24V22.7168ZM14 16.7168H2V14.7168H14V16.7168ZM22 16.7168H18V14.7168H22V16.7168ZM11 12.7168H5V10.7168H11V12.7168ZM19 12.7168H15V10.7168H19V12.7168ZM5 10.7168H3V4.7168H5V10.7168ZM13 10.7168H11V4.7168H13V10.7168ZM21 10.7168H19V4.7168H21V10.7168ZM11 4.7168H5V2.7168H11V4.7168ZM19 4.7168H15V2.7168H19V4.7168Z" fill="black"/>
</svg>
