<svg width="37" height="46" viewBox="0 0 37 46" fill="none" xmlns="http://www.w3.org/2000/svg">
<path d="M35.3947 23.8541C34.1681 27.9376 29.8752 31.1721 29.8752 31.1721C31.1017 31.1721 32.083 31.3338 32.8189 31.5764C32.41 32.0615 31.6332 32.9914 30.5702 33.9213C29.0166 35.2555 26.9314 36.6302 24.6827 36.6302C22.434 36.6302 20.5533 34.8108 20.5533 32.5467V17.5469H26.2364C26.8496 17.5469 27.3403 17.0617 27.3403 16.4553V14.7168C27.3403 14.1103 26.8496 13.6251 26.2364 13.6251H20.5533V11.4823C22.8838 10.6737 24.5192 8.49044 24.5192 5.90288C24.5192 2.62799 21.8208 0 18.5499 0C15.2791 0 12.5807 2.66842 12.5807 5.90288C12.5807 8.49044 14.257 10.6737 16.5466 11.4823V13.6251H10.8635C10.2502 13.6251 9.75961 14.1103 9.75961 14.7168V16.4553C9.75961 17.0617 10.2502 17.5469 10.8635 17.5469H16.5466V32.5467C16.5466 33.6788 16.0968 34.6895 15.32 35.4577C14.5841 36.1855 13.5211 36.6706 12.3763 36.6706C8.61483 36.6706 5.22135 32.8297 4.24011 31.6168C5.01693 31.3742 5.95729 31.2125 7.18385 31.2125C7.18385 31.2125 2.8909 28.0185 1.66434 23.8945C1.66434 23.8945 -1.85179 28.7462 1.33726 34.8108C1.33726 34.8108 1.33726 33.8 2.19585 32.8701C2.76824 34.2448 4.40365 37.0749 8.24686 39.2582C13.2757 42.1288 16.7101 43.3013 18.2637 45.8484C18.3864 46.0505 18.6317 46.0505 18.7544 45.8484C20.308 43.3013 23.7424 42.1288 28.7712 39.2582C32.6145 37.0749 34.2499 34.2448 34.8223 32.8701C35.6809 33.8 35.6809 34.8108 35.6809 34.8108C38.829 28.7866 35.3538 23.8945 35.3538 23.8945L35.3947 23.8541ZM15.1156 5.94331C15.1156 4.04307 16.6692 2.5067 18.5908 2.5067C20.5124 2.5067 22.0661 4.04307 22.0661 5.94331C22.0661 7.07537 21.4937 8.12657 20.6351 8.73303V8.20743C20.6351 7.1158 19.7356 6.22632 18.6317 6.22632C17.5278 6.22632 16.6283 7.1158 16.6283 8.20743V8.73303C15.7697 8.12657 15.1974 7.1158 15.1974 5.94331H15.1156Z" fill="#1F1C16"/>
</svg>
