<svg width="27" height="33" viewBox="0 0 27 33" fill="none" xmlns="http://www.w3.org/2000/svg">
<path d="M24.9137 17.1955C24.0548 20.0461 21.0488 22.304 21.0488 22.304C21.9077 22.304 22.5948 22.4169 23.1101 22.5863C22.8238 22.925 22.2798 23.5741 21.5355 24.2233C20.4476 25.1546 18.9875 26.1142 17.4129 26.1142C15.8384 26.1142 14.5214 24.8442 14.5214 23.2636V12.7926H18.5008C18.9303 12.7926 19.2738 12.4539 19.2738 12.0306V10.8169C19.2738 10.3936 18.9303 10.0549 18.5008 10.0549H14.5214V8.55903C16.1533 7.99455 17.2984 6.47046 17.2984 4.66414C17.2984 2.37801 15.4089 0.543457 13.1186 0.543457C10.8283 0.543457 8.93882 2.40623 8.93882 4.66414C8.93882 6.47046 10.1126 7.99455 11.7158 8.55903V10.0549H7.73641C7.30698 10.0549 6.96343 10.3936 6.96343 10.8169V12.0306C6.96343 12.4539 7.30698 12.7926 7.73641 12.7926H11.7158V23.2636C11.7158 24.0539 11.4009 24.7595 10.8569 25.2958C10.3416 25.8038 9.59728 26.1425 8.79567 26.1425C6.16182 26.1425 3.78563 23.4612 3.09854 22.6145C3.64249 22.4451 4.30095 22.3323 5.15982 22.3323C5.15982 22.3323 2.15379 20.1026 1.29493 17.2237C1.29493 17.2237 -1.16715 20.6106 1.0659 24.8442C1.0659 24.8442 1.0659 24.1386 1.6671 23.4894C2.0679 24.449 3.21306 26.4247 5.90416 27.9488C9.42551 29.9527 11.8303 30.7712 12.9182 32.5493C13.0041 32.6904 13.1759 32.6904 13.2618 32.5493C14.3497 30.7712 16.7545 29.9527 20.2758 27.9488C22.9669 26.4247 24.1121 24.449 24.5129 23.4894C25.1141 24.1386 25.1141 24.8442 25.1141 24.8442C27.3185 20.6388 24.8851 17.2237 24.8851 17.2237L24.9137 17.1955ZM10.7138 4.69236C10.7138 3.36584 11.8017 2.29333 13.1473 2.29333C14.4928 2.29333 15.5807 3.36584 15.5807 4.69236C15.5807 5.48263 15.1799 6.21645 14.5787 6.6398V6.27289C14.5787 5.51085 13.9489 4.88993 13.1759 4.88993C12.4029 4.88993 11.7731 5.51085 11.7731 6.27289V6.6398C11.1719 6.21645 10.7711 5.51085 10.7711 4.69236H10.7138Z" fill="white"/>
</svg>
