<svg width="40" height="52" viewBox="0 0 40 52" fill="none" xmlns="http://www.w3.org/2000/svg">
<path d="M39.9192 0.94043H0.5L0.512205 33.2549C0.510499 34.2841 0.745568 35.2999 1.19925 36.2237C1.65293 37.1476 2.31307 37.9549 3.12866 38.5832L3.18682 38.6291L20.2261 51.5316L37.2596 38.6097C38.0876 37.9794 38.7593 37.1671 39.2226 36.2356C39.6859 35.3042 39.9284 34.2786 39.9314 33.2384L39.9192 0.94043Z" fill="#FAFAFA"/>
<path d="M29.4033 11.8501L25.278 16.0747V44.8789L29.4033 41.7478V11.8501Z" fill="#1F1C16"/>
<path d="M33.5359 38.6082L35.5208 37.1021C36.8189 36.1174 37.6598 34.6565 37.6591 33.0308L37.6483 3.40332L33.5359 7.6144V38.6082Z" fill="#1F1C16"/>
<path d="M12.9465 43.2828V28.7031L8.82121 32.9277V40.1571L12.9465 43.2828Z" fill="#1F1C16"/>
<path d="M21.1877 47.9834V20.2632L17.0624 24.4884V46.4009L20.1699 48.756L21.1877 47.9834Z" fill="#1F1C16"/>
<path d="M38.695 2.42871H1.61589L1.62737 32.8424C1.62621 33.7951 1.84056 34.7357 2.25437 35.5938C2.66817 36.452 3.27072 37.2054 4.01691 37.7977C4.04055 37.8166 4.06352 37.8362 4.08783 37.8545L4.14254 37.8977L20.1703 50.0413L36.1934 37.8821C36.9722 37.2889 37.6039 36.5244 38.0397 35.6477C38.4756 34.7711 38.7037 33.8058 38.7065 32.8268L38.695 2.42871ZM25.6282 7.80079L7.00013 26.8847L6.9927 7.81025L25.6282 7.80079ZM35.5207 36.9954L20.1696 48.6466L4.87129 37.0548L37.582 3.55527L37.5928 32.8262C37.5906 33.6335 37.4025 34.4295 37.0432 35.1525C36.6838 35.8755 36.1629 36.5061 35.5207 36.9954Z" fill="#1F1C16"/>
<path d="M3.88657 4.64405L4.30464 3.35742L4.72339 4.64405L6.0762 4.64337L4.98206 5.43899L5.40081 6.72629L4.30532 5.93135L3.21118 6.72696L3.62857 5.43966L2.53376 4.64472L3.88657 4.64405Z" fill="#FAFAFA"/>
<path d="M17.3649 4.63935L17.7823 3.35205L18.2011 4.63868H19.5545L18.4597 5.43429L18.8785 6.72091L17.7837 5.92598L16.6895 6.72159L17.1069 5.43497L16.0121 4.64003L17.3649 4.63935Z" fill="#FAFAFA"/>
<path d="M3.89678 31.7927L4.31485 30.5054L4.73359 31.792H6.08641L4.99227 32.5876L5.41101 33.8742L4.31553 33.0793L3.22139 33.8749L3.63878 32.5883L2.54397 31.7933L3.89678 31.7927Z" fill="#FAFAFA"/>
<path d="M3.89205 18.2561L4.30944 16.9688L4.72819 18.2554L6.08168 18.2547L4.98686 19.051L5.40561 20.3376L4.3108 19.5427L3.21598 20.3383L3.63405 19.051L2.53924 18.2561H3.89205Z" fill="#FAFAFA"/>
<path d="M13.3255 23.153L13.7435 21.8657L14.1623 23.1523H15.5151L14.421 23.948L14.8397 25.2346L13.7442 24.4396L12.6501 25.2353L13.0675 23.9486L11.9727 23.1537L13.3255 23.153Z" fill="#FAFAFA"/>
<path d="M22.3904 14.0752L22.8078 12.7886L23.2265 14.0752L24.5793 14.0745L23.4852 14.8701L23.9039 16.1574L22.8091 15.3625L21.7143 16.1581L22.1317 14.8708L21.0369 14.0759L22.3904 14.0752Z" fill="#FAFAFA"/>
<path d="M30.8423 4.63428L31.2603 3.34766L31.6791 4.63428L33.0319 4.63361L31.9377 5.42922L32.3565 6.71652L31.261 5.92158L30.1669 6.7172L30.5843 5.4299L29.4894 4.63496L30.8423 4.63428Z" fill="#FAFAFA"/>
<path d="M14.3973 17.3258C14.384 17.2304 14.3583 17.1371 14.321 17.0482C14.034 16.3897 13.728 16.514 13.5464 15.6157C13.5164 15.4486 13.4769 15.2833 13.4282 15.1207C13.3951 15.0261 13.3302 14.835 13.3464 14.683C13.3795 14.3663 13.4815 14.0076 13.5281 13.6861C13.5281 13.6821 13.5281 13.6787 13.5281 13.6746C13.5796 13.6612 13.6265 13.6339 13.6635 13.5957C13.7006 13.5574 13.7264 13.5098 13.7382 13.4578C13.7517 13.3565 13.724 13.3174 13.4849 13.2552L13.4768 13.2458C13.3343 12.9864 13.0992 12.8966 12.8358 12.8453C12.7474 12.8317 12.6572 12.8358 12.5704 12.8574C12.4925 12.8676 12.4134 12.8531 12.3441 12.8162C12.2091 12.7413 11.9166 12.4529 11.8322 12.5805C11.7788 12.6632 11.7461 12.7576 11.7369 12.8557C11.7278 12.9538 11.7424 13.0526 11.7795 13.1438C11.9146 13.4639 12.1274 13.549 11.9031 13.9232C11.768 14.1467 11.4979 14.4784 11.4344 14.7728C11.2519 14.6562 11.0945 14.5042 10.9718 14.3257C10.9265 14.208 10.8634 14.098 10.7847 13.9995V14.9592C10.9042 15.1126 11.042 15.2834 11.1669 15.432C11.0447 15.3517 10.9042 15.2537 10.7847 15.17V15.9507C10.8806 16.0183 11.0231 16.102 11.1224 16.1533C11.2133 16.2072 11.3101 16.2507 11.4108 16.283C11.4553 16.8285 11.6929 17.3402 12.0807 17.7263C12.0173 17.9837 11.9544 18.297 11.9909 18.4362C12.1145 18.9056 12.5312 19.2764 12.5677 19.5533C12.5846 19.6769 12.4488 19.7363 12.3482 19.818L12.303 19.8477L13.7888 19.8768L13.8111 19.8471C13.8344 19.8043 13.84 19.7541 13.8266 19.7073C13.7091 18.9704 13.6976 18.8637 14.1049 18.42C14.233 18.2745 14.3231 18.0995 14.367 17.9107C14.3923 17.9099 14.4172 17.9039 14.4402 17.8932C14.4632 17.8824 14.4837 17.8671 14.5006 17.8481C14.5175 17.8292 14.5303 17.807 14.5383 17.7829C14.5464 17.7588 14.5494 17.7334 14.5473 17.7081C14.522 17.5723 14.4711 17.4426 14.3973 17.3258ZM13.2168 19.5479C13.1999 19.6418 13.1452 19.6917 13.0702 19.7701C13.1001 19.6278 13.0987 19.4808 13.0661 19.3392C13.0412 19.2196 12.9486 18.8988 12.9561 18.8326C12.9655 18.7516 13.239 19.4216 13.2168 19.5479Z" fill="#1F1C16"/>
<path d="M11.2877 19.797C11.2243 19.7976 11.1615 19.7855 11.1029 19.7616C11.0442 19.7377 10.9909 19.7024 10.946 19.6578C10.901 19.6131 10.8654 19.56 10.8412 19.5014C10.817 19.4429 10.8046 19.3802 10.8048 19.3168V13.11C10.8046 13.0162 10.8264 12.9237 10.8682 12.8398L10.9574 12.7047C10.598 12.7413 10.2358 12.7399 9.87676 12.7007L9.95714 12.8358C10.001 12.921 10.0241 13.0154 10.0247 13.1113V19.3141C10.0249 19.3773 10.0127 19.4399 9.98868 19.4983C9.96465 19.5567 9.9293 19.6098 9.88466 19.6545C9.84003 19.6992 9.78699 19.7347 9.72861 19.7588C9.67022 19.7829 9.60764 19.7952 9.54447 19.795L8.20044 19.8484C8.18073 19.8484 8.16183 19.8562 8.1479 19.8701C8.13397 19.8841 8.12614 19.903 8.12614 19.9227C8.12614 19.9424 8.13397 19.9613 8.1479 19.9752C8.16183 19.9891 8.18073 19.997 8.20044 19.997L13.7333 19.9821L13.8683 19.847L11.2877 19.797Z" fill="#1F1C16"/>
<path d="M10.4219 12.7516C12.0232 12.7516 13.3214 11.7643 13.3214 10.5465C13.3214 9.32859 12.0232 8.34131 10.4219 8.34131C8.82058 8.34131 7.52245 9.32859 7.52245 10.5465C7.52245 11.7643 8.82058 12.7516 10.4219 12.7516Z" fill="#1F1C16"/>
<path d="M9.53762 11.351C9.51195 11.3408 9.48451 11.3359 9.45691 11.3365C9.4293 11.3371 9.40209 11.3431 9.37687 11.3544C9.32512 11.3777 9.28456 11.4204 9.26386 11.4733C9.24316 11.5262 9.24397 11.5851 9.26611 11.6374C9.27727 11.6627 9.29334 11.6856 9.31339 11.7048C9.33345 11.7239 9.35709 11.7389 9.38295 11.7488C9.40736 11.7579 9.43322 11.7625 9.45927 11.7623C9.49072 11.7624 9.52181 11.7557 9.55045 11.7427C9.58868 11.7254 9.62091 11.6972 9.64308 11.6615C9.66525 11.6259 9.67635 11.5845 9.67497 11.5426C9.6736 11.5006 9.65981 11.46 9.63536 11.4259C9.61091 11.3918 9.5769 11.3658 9.53762 11.351Z" fill="#FAFAFA"/>
<path d="M10.7662 11.1262C10.7931 11.1365 10.8218 11.1413 10.8506 11.1403C10.8794 11.1392 10.9077 11.1324 10.9337 11.1202C10.9598 11.1091 10.9833 11.0929 11.0031 11.0726C11.0228 11.0523 11.0382 11.0283 11.0486 11.0019C11.0589 10.9756 11.0638 10.9474 11.0631 10.9191C11.0624 10.8909 11.0561 10.863 11.0445 10.8372C11.0331 10.812 11.0169 10.7893 10.9967 10.7704C10.9766 10.7515 10.9529 10.7368 10.927 10.7271C10.8729 10.7066 10.813 10.7083 10.7602 10.7318C10.708 10.7548 10.6671 10.7974 10.6464 10.8505C10.6256 10.9035 10.6267 10.9626 10.6494 11.0148C10.6605 11.0402 10.6765 11.0632 10.6966 11.0823C10.7166 11.1015 10.7403 11.1164 10.7662 11.1262Z" fill="#FAFAFA"/>
<path d="M12.1562 10.5072C12.1831 10.5175 12.2118 10.5223 12.2406 10.5212C12.2694 10.5202 12.2977 10.5134 12.3237 10.5011C12.3749 10.478 12.4149 10.4355 12.4348 10.3829C12.4546 10.3304 12.4528 10.2721 12.4298 10.2208C12.4056 10.1679 12.3614 10.1266 12.3069 10.106C12.2818 10.0953 12.2548 10.0898 12.2275 10.0898C12.2002 10.0898 12.1732 10.0953 12.1481 10.106C12.0962 10.1304 12.0558 10.1741 12.0355 10.2278C12.0152 10.2816 12.0166 10.3411 12.0394 10.3937C12.0504 10.4195 12.0664 10.4427 12.0864 10.4622C12.1065 10.4817 12.1302 10.497 12.1562 10.5072Z" fill="#FAFAFA"/>
<path d="M8.66904 10.4833C8.64337 10.4732 8.61593 10.4682 8.58833 10.4688C8.56073 10.4694 8.53352 10.4755 8.5083 10.4867C8.45654 10.5101 8.41598 10.5528 8.39529 10.6056C8.37459 10.6585 8.37539 10.7174 8.39753 10.7697C8.40869 10.7951 8.42477 10.818 8.44482 10.8371C8.46487 10.8562 8.48851 10.8712 8.51438 10.8811C8.53884 10.89 8.56467 10.8946 8.5907 10.8946C8.62214 10.8947 8.65324 10.888 8.68187 10.8751C8.7201 10.8577 8.75234 10.8295 8.77451 10.7939C8.79667 10.7582 8.80777 10.7168 8.8064 10.6749C8.80502 10.633 8.79124 10.5924 8.76679 10.5583C8.74234 10.5242 8.70832 10.4981 8.66904 10.4833Z" fill="#FAFAFA"/>
<path d="M10.1767 9.97194C10.1654 9.94668 10.1492 9.92393 10.129 9.90502C10.1089 9.88612 10.0851 9.87144 10.0592 9.86185C10.0051 9.8414 9.94515 9.8431 9.89233 9.86658C9.84022 9.88954 9.79931 9.93219 9.77855 9.98522C9.7578 10.0382 9.75888 10.0973 9.78156 10.1496C9.79273 10.1749 9.8088 10.1978 9.82885 10.217C9.8489 10.2361 9.87255 10.2511 9.89841 10.261C9.9253 10.2713 9.954 10.2761 9.98278 10.275C10.0116 10.274 10.0398 10.2672 10.0659 10.2549C10.0919 10.2439 10.1155 10.2277 10.1352 10.2074C10.155 10.1871 10.1704 10.1631 10.1807 10.1367C10.1911 10.1104 10.196 10.0822 10.1953 10.0539C10.1946 10.0256 10.1883 9.99776 10.1767 9.97194Z" fill="#FAFAFA"/>
<path d="M11.6349 11.9936C11.6591 12.003 11.6847 12.0078 11.7106 12.0078C11.7421 12.0077 11.7732 12.0008 11.8018 11.9875C11.8278 11.9764 11.8514 11.9603 11.8711 11.94C11.8908 11.9197 11.9063 11.8956 11.9166 11.8693C11.9269 11.8429 11.9319 11.8148 11.9312 11.7865C11.9305 11.7582 11.9241 11.7303 11.9125 11.7045C11.9013 11.6793 11.885 11.6567 11.8649 11.6379C11.8447 11.6191 11.8209 11.6045 11.795 11.5951C11.7553 11.5798 11.7119 11.5765 11.6703 11.5856C11.6287 11.5948 11.5907 11.616 11.5611 11.6467C11.5315 11.6773 11.5116 11.7159 11.5038 11.7578C11.496 11.7997 11.5008 11.8429 11.5174 11.8821C11.5285 11.9077 11.5447 11.9307 11.5648 11.9498C11.585 11.969 11.6089 11.9838 11.6349 11.9936Z" fill="#FAFAFA"/>
</svg>
