<svg width="38" height="33" viewBox="0 0 38 33" fill="none" xmlns="http://www.w3.org/2000/svg">
<g clip-path="url(#clip0_111_6432)">
<path d="M3.25148 32.7255C2.353 32.7255 1.66997 32.4871 1.20241 32.0093C0.733779 31.5327 0.5 30.8451 0.5 29.9488V14.8988C0.5 14.0025 0.733779 13.316 1.20241 12.8382C1.66997 12.3615 2.353 12.1221 3.25148 12.1221H8.86973C12.385 12.1221 15.1042 13.0183 17.0251 14.8109C18.9449 16.6035 19.9058 19.1363 19.9058 22.4095C19.9058 24.0461 19.657 25.5025 19.1603 26.7789C18.6637 28.0552 17.9462 29.136 17.0111 30.0224C16.0749 30.9088 14.9232 31.581 13.5572 32.039C12.1911 32.497 10.629 32.7255 8.8708 32.7255H3.25148Z" fill="#FAFAFA"/>
<path d="M29.9126 13.8449C29.4709 13.8449 29.0292 13.6736 28.692 13.3298C28.0176 12.6422 28.0176 11.5285 28.692 10.842L32.5316 6.92624L28.6909 3.01051C28.0176 2.32292 28.0176 1.20917 28.6909 0.522678C29.3642 -0.163809 30.4577 -0.163809 31.131 0.522678L37.4118 6.92624L31.131 13.3298C30.7938 13.6736 30.3521 13.8449 29.9104 13.8449H29.9126Z" fill="#FAFAFA"/>
<path d="M21.7996 13.8449C21.3579 13.8449 20.9162 13.6736 20.579 13.3298C19.9046 12.6422 19.9046 11.5285 20.579 10.842L24.4197 6.92624L20.579 3.01051C19.9046 2.32292 19.9046 1.20917 20.579 0.522678C21.2524 -0.163809 22.3458 -0.163809 23.0192 0.522678L29.3 6.92624L23.0192 13.3298C22.682 13.6736 22.2403 13.8449 21.7986 13.8449H21.7996Z" fill="#FAFAFA"/>
</g>
<defs>
<clipPath id="clip0_111_6432">
<rect width="36.9145" height="32.7197" fill="white" transform="translate(0.5 0.00585938)"/>
</clipPath>
</defs>
</svg>
