<svg width="76" height="21" viewBox="0 0 76 21" fill="none" xmlns="http://www.w3.org/2000/svg">
<path fill-rule="evenodd" clip-rule="evenodd" d="M63.7098 18.7884C63.6561 19.0052 63.6291 19.2274 63.6296 19.4504C63.6296 19.519 63.6296 19.5848 63.6296 19.651C63.6296 19.7113 63.6296 19.7705 63.6296 19.8313C63.6339 19.9783 63.6157 20.1252 63.5758 20.2671C63.4373 20.3403 63.2218 20.3621 62.9807 20.3745C62.9807 20.3745 62.8153 20.3897 62.6833 20.4006C62.2715 20.1903 61.857 20.2698 61.548 20.3426C61.381 20.3815 61.2241 20.4205 61.1066 20.4088L61.0351 20.4022L60.9641 20.4158C60.8529 20.4419 60.6932 20.4022 60.5226 20.3593C60.2441 20.2877 59.8777 20.211 59.5013 20.3593C59.282 20.3009 59.0561 20.2686 58.8287 20.2632C58.48 20.2507 58.307 20.2316 58.2356 20.1269L58.1955 20.0719L58.1465 20.033C57.9491 19.8694 57.7215 19.7495 57.5044 19.6338C57.1067 19.4251 56.8595 19.2806 56.7985 19.0497L56.7612 18.9009L56.634 18.8075C56.1641 18.4539 55.7856 17.8872 55.6199 17.2887C55.5796 16.8237 55.4611 16.3683 55.2691 15.9405C55.2848 15.7536 55.3406 15.0713 55.3406 15.0713C55.3807 14.1896 55.4136 13.4275 56.089 12.9294L56.1512 12.8839L56.2435 12.7503C56.587 12.2471 56.9454 11.7257 57.4583 11.5579L57.5839 11.5189L57.6674 11.4157C58.2143 10.7537 59.1032 10.6758 60.0431 10.5878C60.0431 10.5878 60.7787 10.5021 60.8858 10.49C61.3036 10.5765 61.7037 10.552 62.0552 10.5146C62.3153 10.4873 62.5621 10.4624 62.7973 10.4858L62.9979 10.5064L63.1508 10.3759C63.1909 10.3401 63.2877 10.3471 63.4767 10.3705L63.5204 10.3744C63.5802 10.4667 63.6099 10.5905 63.6099 10.7736C63.6099 10.8546 63.6063 10.9468 63.6055 11.0462C63.6047 11.1455 63.5926 11.251 63.5926 11.353C63.5936 11.5026 63.6124 11.6516 63.6484 11.797C63.6116 11.9313 63.5921 12.0696 63.5902 12.2086C63.593 12.3706 63.6064 12.5323 63.6304 12.6927C63.65 12.8197 63.6616 12.9478 63.6649 13.0762C63.6649 13.1121 63.6516 13.1424 63.6488 13.1767C63.5845 13.1728 63.5206 13.1646 63.4574 13.1522C63.2319 13.1132 62.9245 13.0572 62.597 13.1974C62.4365 13.2538 62.1993 13.2305 61.9501 13.2071C61.5219 13.1658 60.9428 13.123 60.4777 13.5868C60.4572 13.5961 60.1767 13.7546 60.1767 13.7546C59.8308 13.9373 59.405 14.1659 59.1935 14.6196C59.1971 14.6141 59.1991 14.6048 59.2027 14.5977L59.1815 14.6445C59.1855 14.6347 59.1899 14.6277 59.1935 14.6196C59.0537 14.8744 58.982 15.1592 58.9852 15.4479C58.9852 15.9498 59.1723 16.4491 59.3958 16.8054L59.4604 16.9113L60.5608 17.4748L60.6274 17.4846C61.2293 17.6057 61.7912 17.5547 62.3309 17.5052L63.1673 17.4503L63.3049 17.395L63.2981 17.3981C63.3354 17.3884 63.4486 17.4063 63.524 17.4199C63.524 17.4199 63.5902 17.4254 63.6484 17.4336C63.6621 17.471 63.6684 17.5107 63.6669 17.5504C63.6626 17.6522 63.6522 17.7536 63.6356 17.8541C63.6117 17.9975 63.5983 18.1424 63.5955 18.2876C63.5991 18.4599 63.6385 18.6297 63.7114 18.7868L63.7098 18.7884ZM42.3109 16.7384C42.396 16.8736 42.4313 17.0247 42.4313 17.2159C42.4313 17.3436 42.4165 17.4885 42.4016 17.6602C42.3868 17.832 42.3663 18.0107 42.3663 18.2019C42.3663 18.2798 42.3756 18.3577 42.3828 18.4356C42.3715 18.4659 42.3471 18.5376 42.3358 18.5649C42.2905 18.5773 42.2303 18.5968 42.2303 18.5968L42.144 18.7284C42.0068 18.9321 41.9197 19.1537 41.8406 19.3671C41.6957 19.7394 41.5938 19.9723 41.3526 20.063C41.3526 20.063 40.233 20.4178 40.1254 20.4493C39.8566 20.4688 39.5724 20.4493 39.2718 20.4302C38.812 20.3998 38.3344 20.3765 37.836 20.4742C37.7364 20.4602 37.5952 20.4423 37.5952 20.4423C37.49 20.4341 37.3323 20.4205 37.2858 20.3889L37.0924 20.2635L36.8756 20.3383C36.3804 20.5046 35.8419 20.5046 35.3467 20.3383L35.1861 20.2834L35.0296 20.3407C34.5079 20.5354 33.9862 20.5354 33.4084 20.5198C33.36 20.3819 33.3353 20.2371 33.3353 20.0914C33.3353 19.8535 33.3855 19.6046 33.4926 19.4602L33.6391 19.2654L33.5548 19.0427C33.4761 18.8323 33.4354 18.6103 33.4344 18.3865C33.4344 18.1828 33.4746 17.9971 33.5584 17.8869L33.674 17.7311L33.6415 17.543C33.5665 17.1384 33.4834 16.6103 33.4834 16.097C33.4789 15.7977 33.5151 15.499 33.5909 15.2088L33.6194 15.1095L33.6018 15.0078C33.5468 14.7253 33.5186 14.4385 33.5175 14.1511C33.5118 13.8067 33.5683 13.464 33.6845 13.1386L33.739 12.9995L33.6861 12.829C33.6018 12.5564 33.5175 12.2732 33.5175 12.0228C33.5162 11.9346 33.5298 11.8467 33.5576 11.7627C33.6567 11.6217 33.7124 11.4562 33.7182 11.2856C33.7131 11.1219 33.6819 10.96 33.6259 10.8055C33.5999 10.7338 33.5818 10.6597 33.5721 10.5843C33.5712 10.5748 33.5727 10.5653 33.5767 10.5565C33.5806 10.5478 33.5868 10.5402 33.5946 10.5344C33.6038 10.5235 33.6379 10.4936 33.6379 10.4936C33.7133 10.5137 33.7868 10.5397 33.8578 10.5714C34.1038 10.6649 34.5296 10.8051 34.9466 10.5395C35.2817 10.5107 35.5858 10.5395 35.9069 10.5683C36.3568 10.6112 36.8259 10.6485 37.3516 10.5216C37.963 10.6014 38.5828 10.6004 39.194 10.5189H39.2341C39.7671 10.4943 40.4296 10.464 40.7591 10.8172L40.8891 10.9562L41.0825 10.9616C41.4196 10.9725 41.5942 11.205 41.9129 11.7358C41.9129 11.7358 42.0762 11.9878 42.1536 12.1128C42.1983 12.2915 42.2235 12.4742 42.2287 12.658C42.2287 12.8866 42.1777 13.0599 42.077 13.1837L41.9333 13.357L41.9915 13.5755C41.9996 13.6121 42.0042 13.6494 42.0051 13.6869C42.0051 13.8477 41.8988 14.0046 41.6865 14.2772C41.5412 14.4669 41.3731 14.6803 41.2768 14.933L41.1295 15.3174L41.5103 15.4923C41.6464 15.5557 41.6817 15.6422 41.7539 15.8965C41.8262 16.1508 41.9494 16.4962 42.3126 16.7369L42.3109 16.7384ZM74.9998 19.1607L74.9079 19.348L74.9914 19.5349C75.0164 19.5904 75.029 19.6504 75.0283 19.7109C75.0283 19.8099 74.9982 19.9255 74.9544 20.0836C74.9007 20.2615 74.8656 20.4441 74.8497 20.6288L74.8184 20.6109L74.7887 20.6C74.5479 20.5038 74.3071 20.5342 74.1109 20.556C74.0306 20.5642 73.883 20.5821 73.846 20.5673L73.7726 20.5217L73.6361 20.4801C73.5073 20.461 73.4094 20.3593 73.2509 20.1806C73.041 19.9536 72.7376 19.6261 72.2272 19.607C72.0233 19.4707 71.819 19.2565 71.6196 19.0306L71.1003 18.5025L71.1557 18.5602L71.0353 18.3955C70.8567 18.156 70.634 17.8588 70.2644 17.7182L69.853 17.5625L69.6785 17.9542C69.6052 18.1346 69.5706 18.3275 69.5765 18.5212C69.5765 18.5816 69.5765 18.6408 69.5793 18.7012C69.5793 18.7467 69.5825 18.7973 69.5825 18.8456C69.5825 18.9488 69.5753 19.0439 69.5424 19.0738L69.4971 19.1206L69.4658 19.1743C69.3873 19.3216 69.3461 19.4848 69.3454 19.6506C69.3454 19.8648 69.4096 20.0587 69.4605 20.209C69.4762 20.2651 69.5007 20.3352 69.5099 20.3835L69.4248 20.4302C69.3751 20.4649 69.3566 20.4758 69.1094 20.3644C68.8686 20.2612 68.4007 20.0809 67.9456 20.4329C67.9131 20.4329 67.8975 20.4329 67.8754 20.4329C67.8208 20.3738 67.7662 20.313 67.7662 20.313L67.4624 20.4037C67.3803 20.4173 67.2959 20.4049 67.2217 20.3683L67.1241 20.3009L67.0066 20.2869C66.7618 20.2608 66.5507 20.3325 66.3841 20.3917C66.3841 20.3917 66.344 20.4014 66.3039 20.4123C66.2574 20.1486 66.2322 19.8818 66.2284 19.6144C66.2281 19.4107 66.248 19.2076 66.2878 19.0076C66.3357 18.8704 66.3594 18.7264 66.358 18.5816C66.3557 18.4499 66.3443 18.3185 66.3239 18.1883L66.2995 17.9157L66.3239 15.7629L66.3528 14.6515L66.332 14.5884C66.2819 14.4165 66.2576 14.2385 66.2597 14.0599C66.2618 13.7717 66.3078 13.4854 66.3962 13.2102L66.4467 13.0505L66.3805 12.8948C66.3147 12.746 66.283 12.585 66.2878 12.4232C66.2927 12.2315 66.3107 12.0404 66.3416 11.8511C66.3773 11.6242 66.3972 11.3952 66.4014 11.1657C66.3961 10.997 66.3708 10.8295 66.3259 10.6665C66.334 10.6197 66.34 10.5633 66.34 10.5633C66.34 10.5633 66.3472 10.5138 66.3552 10.4659C66.4467 10.4741 66.5378 10.485 66.641 10.5029C66.9335 10.5566 67.2899 10.6088 67.6655 10.4659L67.6912 10.4725C67.7273 10.5504 67.7715 10.6415 67.7715 10.6415H68.0692C68.3148 10.6415 68.5628 10.58 68.8016 10.522C69.3333 10.3915 69.479 10.3997 69.5641 10.5041C69.5683 10.5221 69.5703 10.5405 69.5701 10.559C69.5701 10.6898 69.5332 10.8316 69.4898 10.9924C69.4417 11.1715 69.3839 11.3818 69.3839 11.6046C69.3839 11.7993 69.4529 11.9983 69.5749 12.2004C69.585 12.4574 69.6728 12.6705 69.8498 12.829L70.0244 12.9847L70.2596 12.9357C70.6464 12.8543 70.8535 12.5789 71.0064 12.3784C71.0814 12.2822 71.1637 12.1747 71.2151 12.1623L71.4077 12.1233L71.5084 11.9566C71.8034 11.4808 72.2027 11.1124 72.5811 10.9706L72.8026 10.8853L72.8592 10.661C72.8817 10.5718 72.9242 10.536 73.3295 10.4862C73.3295 10.4862 73.3849 10.4795 73.4291 10.4725C73.4744 10.5017 73.527 10.5305 73.527 10.5305C74.0086 10.8179 74.5575 11.1455 74.6366 11.6155L74.6663 11.7794L74.7995 11.8865C74.9444 12.0034 75.0716 12.1299 75.1101 12.2444C74.9737 12.4645 74.7413 12.628 74.458 12.8068C74.0752 13.0474 73.6554 13.3282 73.4046 13.8193C73.3809 13.8356 73.3524 13.8535 73.3524 13.8535C73.1116 14.0093 72.787 14.2251 72.6834 14.6102C72.6863 14.6005 72.6834 14.5923 72.6891 14.581L72.6678 14.6472C72.672 14.6339 72.6772 14.6208 72.6834 14.6083C72.6245 14.7648 72.5938 14.93 72.5927 15.0966C72.5927 15.3536 72.655 15.5974 72.7087 15.8061L72.8235 16.2766L73.0916 16.3545C73.5948 16.4826 74.0511 16.8194 74.5363 17.1723C74.5363 17.1723 74.95 17.4776 74.9777 17.5025C74.957 17.6086 74.9457 17.7162 74.944 17.8242C74.9476 18.0225 74.9707 18.2201 75.013 18.4141C75.0428 18.5552 75.06 18.6986 75.0644 18.8425C75.0707 18.9522 75.0485 19.0616 74.9998 19.1607ZM54.4292 19.9033C54.4545 20.0056 54.4703 20.1099 54.4766 20.2149C54.4394 20.2481 54.3975 20.2759 54.3522 20.2974L54.2799 20.285C54.235 20.1915 54.1792 20.0692 54.1792 20.0692L53.5499 20.1806C53.1145 20.2643 52.8348 20.3029 52.6101 20.1584L52.3741 20.0073L52.1289 20.1436C51.9146 20.2671 51.6132 20.3169 51.4166 20.2441C51.3825 20.1806 51.3484 20.1187 51.3484 20.1187C51.1216 19.6607 50.7424 18.9056 49.8993 18.9383C49.8591 18.9329 49.7708 18.9259 49.7708 18.9259C49.0649 18.8546 48.1897 18.7701 47.4834 19.2464L47.4669 19.2577L47.4509 19.2713C47.2454 19.4391 47.17 19.644 47.113 19.7955L47.056 19.9247L46.9244 20.0451L46.8802 20.2398C46.8674 20.2904 46.8477 20.3391 46.8216 20.3847C46.7815 20.4065 46.7273 20.4123 46.5178 20.357C46.2811 20.2912 45.9351 20.2137 45.5671 20.3706C45.4977 20.3625 45.4094 20.3558 45.4094 20.3558C45.1951 20.3223 44.9202 20.2978 44.6602 20.3983C44.4549 20.3792 44.2478 20.3889 44.0454 20.4271C43.9686 20.441 43.891 20.4506 43.813 20.4559C43.8532 20.2702 43.9443 20.0914 44.0683 19.8948C44.2485 19.6116 44.4367 19.288 44.4724 18.8795L44.6522 18.8632L44.7324 18.5193C44.8416 18.0477 44.9423 17.6045 45.2337 17.3292L45.3894 17.1851L45.3713 16.9744C45.3713 16.962 45.3713 16.9483 45.3713 16.9355C45.3713 16.7735 45.454 16.6111 45.5864 16.3732C45.7249 16.1157 45.8874 15.8034 45.9127 15.4241C46.2634 15.0417 46.3204 14.5518 46.3204 14.1433C46.3204 14.0911 46.3204 14.0428 46.3204 13.9937L46.3304 13.4777L46.2221 13.3115C45.9412 12.9851 45.5764 12.9769 45.3601 12.973C45.3089 12.9727 45.2578 12.9689 45.2072 12.9618C45.1482 12.8858 45.1173 12.7928 45.1193 12.6977C45.1273 12.5462 45.1491 12.3957 45.1843 12.2479C45.2345 12.0375 45.263 11.8228 45.2694 11.6069C45.2662 11.4091 45.2219 11.214 45.139 11.0333C45.1255 10.9676 45.1189 10.9008 45.1193 10.8339C45.1209 10.716 45.1482 10.5997 45.1996 10.4928C45.2176 10.4982 45.269 10.5091 45.3408 10.5286C45.5688 10.7035 45.8501 10.721 46.1836 10.552C46.1836 10.552 46.2124 10.5411 46.2337 10.5302C46.7823 10.647 47.369 10.6154 47.8935 10.5792L48.5356 10.5531C48.8514 10.7003 49.1881 10.6139 49.3683 10.5601C49.3683 10.5601 49.4418 10.5411 49.4518 10.5368C49.5101 10.55 49.5703 10.5542 49.63 10.5492C49.9687 10.6302 50.3042 10.5987 50.5803 10.552C51.0807 10.4655 51.0935 10.4959 51.169 10.6828L51.1818 10.7116L51.1995 10.7389C51.2745 10.8697 51.3066 11.0555 51.3424 11.2533C51.3917 11.5493 51.4491 11.8861 51.673 12.188C51.8051 12.3862 51.8303 12.6845 51.8572 13.0011C51.8974 13.489 51.9568 14.0946 52.5017 14.5374C52.5467 14.59 52.5467 14.7009 52.5419 14.8812C52.5326 15.1538 52.5182 15.5717 52.8737 15.8938L52.8232 15.8412C53.1153 16.2061 53.2682 16.5675 53.2995 16.9472L53.3076 17.0519L53.3593 17.1399C53.5893 17.5224 53.7064 17.939 53.8288 18.3807C53.9693 18.8702 54.1274 19.3749 54.4308 19.8605C54.4272 19.8827 54.4292 19.9033 54.4292 19.9033ZM31.1065 10.374C31.1305 10.3643 31.1542 10.3631 31.1791 10.3506L31.1205 10.3713L31.1065 10.374ZM22.0325 19.1938C22.2304 19.5053 22.3981 19.781 22.4117 20.07C22.0253 20.2694 21.4667 20.2281 20.9546 20.1759L20.7411 20.1537C20.5617 20.1265 20.3639 20.1689 20.2074 20.2008L20.1243 20.2156C20.0316 20.2114 19.8763 20.1977 19.8763 20.1977C19.4786 20.1798 19.2799 20.1537 19.1913 19.9972L19.0941 19.8239L18.8971 19.7783C18.3706 19.656 17.9649 19.8691 17.6406 20.0455C17.4957 20.1234 17.3597 20.1938 17.2393 20.2238C17.1518 20.2281 16.9632 20.2402 16.9632 20.2402C16.651 20.2678 16.3548 20.29 16.1522 20.1814L15.9949 20.0973L15.8247 20.1362C15.671 20.172 15.5438 20.1047 15.2677 19.9341C15.0578 19.8005 14.7937 19.6436 14.4711 19.5953C14.2351 19.5252 14.1641 19.3768 14.0297 18.9804C13.9289 18.6836 13.7957 18.3316 13.4875 18.0578C13.4474 17.8584 13.3827 17.5543 13.3827 17.5543C13.3161 17.2973 13.2563 17.0659 13.2563 16.8514C13.2553 16.751 13.2712 16.6512 13.3033 16.5558L13.3486 16.4347L13.3181 16.3093C13.2202 15.9012 13.1933 15.4455 13.1933 14.9755C13.1933 14.6741 13.2034 14.3699 13.2146 14.0662L13.2379 13.241L13.2014 13.1631C13.1683 13.082 13.1518 12.9955 13.1528 12.9084C13.1528 12.7807 13.1829 12.6358 13.2202 12.4532C13.2678 12.254 13.2947 12.0508 13.3005 11.8464C13.2971 11.6472 13.2506 11.4508 13.164 11.2701C13.1604 11.1922 13.1512 11.0695 13.1512 11.0695C13.1444 10.9527 13.1343 10.8246 13.1343 10.7023C13.1318 10.6048 13.1437 10.5075 13.1697 10.4133C13.3833 10.4852 13.6116 10.5064 13.8354 10.4752L13.9125 10.4612L13.9823 10.4242C14.4819 10.1516 15.0522 10.3405 15.3467 10.478L15.5346 10.5644L15.7264 10.4865C15.8761 10.4224 16.0379 10.3891 16.2015 10.3888C16.2434 10.4932 16.2647 10.6043 16.2645 10.7163C16.2583 10.9014 16.2372 11.0858 16.2015 11.2677C16.1579 11.4939 16.1334 11.7231 16.1281 11.9531C16.1299 12.2199 16.1956 12.4827 16.3199 12.7207V13.0124C16.3239 13.0852 16.3275 13.1681 16.3275 13.2421C16.3275 13.3796 16.3167 13.5073 16.279 13.5774L16.2063 13.7106L16.2316 13.8567C16.2746 14.1034 16.2959 14.3533 16.2954 14.6036C16.2935 14.8348 16.2738 15.0656 16.2364 15.294C16.1761 15.4034 16.1425 15.5248 16.1381 15.6488C16.1381 15.8377 16.2003 16.0055 16.2449 16.1305C16.2776 16.2065 16.2991 16.2866 16.3087 16.3685C16.3095 16.3783 16.3079 16.3882 16.3039 16.3973L16.2822 16.4865L16.3115 16.6574C16.3653 16.9795 16.4676 17.58 17.072 17.7891L17.0286 17.77L17.0952 17.809C17.5431 18.0485 17.8978 18.0251 18.1591 17.7455C18.1479 17.7568 18.143 17.7693 18.1286 17.7786L18.186 17.7237C18.1792 17.733 18.1691 17.7362 18.1591 17.7455C18.5524 17.3993 18.5889 16.9176 18.6074 16.5242L18.6587 16.032L18.6531 15.9027C18.5705 15.5037 18.5312 15.0974 18.5359 14.6904C18.5359 14.4568 18.548 14.2169 18.5564 13.9723C18.5648 13.7278 18.5732 13.4785 18.5732 13.2215C18.574 12.8829 18.5511 12.5446 18.5046 12.209C18.5473 12.0089 18.5699 11.8054 18.572 11.6011C18.572 11.4453 18.5612 11.2958 18.5536 11.154C18.546 11.0123 18.5387 10.8845 18.5387 10.7552C18.5443 10.621 18.5623 10.4876 18.5925 10.3565C18.7053 10.363 18.8184 10.3555 18.9292 10.3343C19.0937 10.425 19.4068 10.5913 19.7868 10.4122L19.8342 10.3872L19.9846 10.2704C20.1135 10.2798 20.2427 10.2907 20.2427 10.2907C20.4931 10.302 20.7086 10.3101 20.8908 10.4052L21.2147 10.5726L21.4554 10.302C21.4956 10.2579 21.5967 10.2455 21.6962 10.2439C21.7392 10.3502 21.7564 10.4889 21.7564 10.705C21.7564 10.705 21.7769 11.0103 21.7853 11.1614C21.7194 11.4108 21.6864 11.6673 21.687 11.9247C21.693 12.2341 21.7183 12.5428 21.7628 12.8492C21.8052 13.1484 21.8299 13.4496 21.8367 13.7515C21.8367 13.8189 21.8335 13.8863 21.8315 13.9525C21.7953 14.0389 21.6846 14.347 21.6846 14.347L21.7624 14.9825C21.7978 15.2345 21.8339 15.4681 21.8339 15.6835C21.8339 15.9323 21.7877 16.1508 21.6497 16.3381L21.4916 16.5527L21.6091 16.7906C21.7668 17.1057 21.7893 17.4935 21.7893 17.8869C21.7893 17.978 21.7893 18.0683 21.7893 18.1595V18.8184L21.8487 18.8963L22.0325 19.1938ZM31.0166 11.994L30.9604 12.133L31.0406 12.4138C31.0717 12.514 31.093 12.6167 31.1045 12.7207C31.0423 12.7359 30.9564 12.7371 30.7541 12.6958C30.4134 12.6272 29.7047 12.4812 29.3419 13.2873C29.2244 13.5298 29.1658 13.7952 29.1706 14.0631C29.174 14.2369 29.1874 14.4105 29.2107 14.5829C29.2306 14.7257 29.2416 14.8696 29.2436 15.0137C29.2457 15.1392 29.2282 15.2643 29.1918 15.3848L29.1762 15.4288L29.1698 15.4755C29.1641 15.5293 29.1613 15.5857 29.1613 15.6406C29.1669 15.8235 29.1863 16.0057 29.2195 16.1858C29.2468 16.3272 29.2632 16.4704 29.2685 16.6142C29.2726 16.713 29.2501 16.8111 29.2031 16.8989L29.118 17.0406L29.1513 17.2042C29.2145 17.5626 29.2439 17.9259 29.2392 18.2895C29.2392 18.5855 29.2251 18.885 29.2123 19.1767L29.193 19.7219L29.2295 19.8075C29.2777 19.9239 29.3036 20.0478 29.3058 20.1732C29.3004 20.2072 29.2924 20.2408 29.2817 20.2737C29.2528 20.2639 29.2195 20.2491 29.2195 20.2491C28.9948 20.1471 28.573 19.9598 28.1131 20.2791C28.0264 20.3368 27.9309 20.3301 27.6785 20.2916L27.3009 20.2624C27.0143 20.1374 26.727 20.2378 26.5946 20.2916C26.5946 20.2916 26.5376 20.3122 26.5211 20.3177C26.4061 20.3225 26.291 20.3152 26.1776 20.2959C26.1332 20.1356 26.1103 19.9704 26.1094 19.8044C26.1134 19.578 26.1305 19.3521 26.1608 19.1276C26.1964 18.8727 26.2162 18.616 26.2201 18.3588C26.2198 18.1493 26.196 17.9403 26.1491 17.7358C26.2508 17.4584 26.3034 17.1664 26.3044 16.872C26.2986 16.586 26.2728 16.3007 26.2274 16.018C26.1872 15.7699 26.1637 15.5194 26.1571 15.2683C26.1532 15.0755 26.1829 14.8834 26.245 14.7002L26.3137 14.4965L26.1965 14.3205C26.1764 14.2889 26.17 14.2184 26.17 14.1417C26.17 14.0825 26.17 14.0206 26.1764 13.9712C26.18 13.912 26.182 13.8461 26.182 13.7764C26.182 13.468 26.1222 13.072 25.7005 12.834L25.6134 12.7834L25.2666 12.7487C25.0331 12.7242 24.7891 12.7047 24.5126 12.7791C24.4485 12.7713 24.3835 12.7731 24.32 12.7846C24.2798 12.7394 24.257 12.6786 24.257 12.5591C24.257 12.4668 24.2682 12.3402 24.2863 12.1724C24.3088 12.0128 24.3214 11.8521 24.324 11.691C24.3217 11.602 24.312 11.5133 24.2951 11.4258C24.2951 11.42 24.3192 10.7599 24.3256 10.4558C24.4765 10.3911 24.6827 10.3732 24.9299 10.4133C25.3284 10.5563 25.8309 10.5784 26.223 10.3841C26.733 10.4807 27.2957 10.5644 27.784 10.5247L27.9101 10.515L28.0152 10.4437C28.0533 10.4161 28.1191 10.4176 28.266 10.4227C28.266 10.4227 28.3695 10.4199 28.4695 10.4199C28.6562 10.5086 28.8643 10.5461 29.0714 10.5286L29.177 10.5247C29.2239 10.5753 29.4944 10.8752 29.4944 10.8752L29.8391 10.4967C29.9142 10.4157 29.9748 10.4075 30.2725 10.439C30.5009 10.464 30.783 10.4842 31.0792 10.3837C31.1276 10.645 31.1533 10.9097 31.1562 11.1751C31.1542 11.4551 31.1189 11.7413 31.0166 11.994ZM11.0447 14.2679C11.2265 14.5569 11.2703 14.868 11.2703 15.2212C11.2703 15.3821 11.2618 15.5542 11.251 15.7372L11.2362 16.0807C10.9797 16.3876 10.9392 16.7661 10.9215 17.0589C10.8975 17.3463 10.8814 17.4924 10.7867 17.557C10.403 17.8444 10.1406 18.1801 9.88536 18.5045C9.60445 18.8635 9.34239 19.202 8.96235 19.4068L9.03379 19.3764L8.62365 19.5692C8.46313 19.6572 8.35598 19.7125 8.25605 19.7125H8.09553L7.96912 19.8114C7.26322 20.3699 6.13435 20.3177 5.32973 20.2227C5.14338 20.1462 4.94196 20.1106 4.73981 20.1183L4.51307 20.1047C4.48056 20.0961 4.2466 20.0443 4.2466 20.0443C3.76503 19.9407 3.27022 19.8363 2.97526 19.5049L2.88497 19.4041L2.75053 19.3698C1.76131 19.1069 1.26609 17.9612 1.10076 17.4826L1.07427 17.3989L1.01247 17.3343C0.571031 16.8374 0.5 16.127 0.5 15.3918C0.5 15.213 0.50321 15.0316 0.506822 14.8524C0.506822 14.8524 0.511638 14.4151 0.513243 14.3037C0.543341 14.2064 0.786533 13.3862 0.820243 13.2694C0.9676 13.1038 1.08179 12.913 1.15694 12.7067C1.22075 12.5338 1.25847 12.4481 1.31184 12.4193L1.49323 12.3301L1.545 12.1397C1.58513 12.001 1.69549 11.9235 1.95594 11.7767C2.21639 11.6299 2.54907 11.4177 2.73287 11.0212C2.89741 10.9017 3.11411 10.8343 3.37496 10.7654C3.69022 10.6875 3.99134 10.5632 4.26787 10.397C4.54878 10.397 4.77592 10.2981 4.9525 10.2225C5.15115 10.1384 5.2294 10.1111 5.31367 10.1411L5.38631 10.1645H5.68127C6.35707 10.1614 7.12397 10.1547 7.60273 10.4943L7.74359 10.5921L7.91454 10.5757C8.03975 10.5644 8.15292 10.6373 8.37404 10.8051C8.56546 10.948 8.79662 11.1166 9.0984 11.1852C9.16341 11.2358 9.23685 11.2907 9.23685 11.2907C9.54666 11.5287 9.81834 11.7366 9.93472 12.0267L9.98609 12.1517L10.0944 12.2273C10.6591 12.6167 10.9797 13.2429 10.9797 13.9552C10.9797 13.9774 10.9797 14.0019 10.9797 14.0253L10.9753 14.1561L11.0447 14.2679ZM4.37582 14.7177C4.2153 15.3451 4.40271 15.9588 4.48056 16.5982C4.77392 17.0266 5.11623 17.5305 5.75431 17.3728C6.19013 17.3833 6.54729 17.0122 6.80092 16.6901C7.15768 15.9023 7.18537 14.9724 7.02364 14.0782C6.62795 13.6242 6.22986 13.1596 5.59499 13.0782C5.05162 13.2118 4.72014 13.6623 4.37582 14.0782V14.7177ZM37.0899 17.8619C37.1505 18.2198 37.5486 18.2198 37.8011 18.3051C38.0739 18.2845 38.3055 17.9889 38.4098 17.7564C38.5977 17.2501 38.702 16.5733 38.3055 16.1317C37.9897 15.8377 37.6132 16.1527 37.236 15.9833C37.1092 16.5733 36.8355 17.2279 37.0899 17.8619ZM37.1108 13.9517C37.2011 14.2196 37.4664 14.2652 37.6883 14.3314C38.3091 14.0631 38.6635 13.4166 38.6422 12.7686C38.4199 12.2335 37.8649 12.2117 37.3793 12.2764C36.7123 12.6354 37.0241 13.3944 37.1108 13.9517ZM48.3129 15.4607C48.2884 15.8459 48.026 16.349 48.5272 16.5418C48.9807 17.0013 49.3386 16.495 49.7456 16.254C49.7674 15.7903 49.7022 15.3266 49.5533 14.8855C49.4349 14.5008 48.9064 14.6199 48.646 14.5954C48.5745 14.8855 48.7411 15.3174 48.3129 15.4607ZM0.838302 7.17873C0.838302 7.21456 0.841111 7.25973 0.842716 7.28037C0.844321 7.30101 0.990397 7.34073 1.16818 7.36176L1.35799 7.37267C1.54741 7.3824 1.7593 7.33022 1.97239 7.33022C2.18549 7.33022 2.40942 7.38085 2.62773 7.37695C2.84604 7.37306 3.06274 7.36994 3.2646 7.37422C3.64665 7.36566 4.02227 7.40538 4.40191 7.40421C4.78154 7.40304 5.15877 7.36293 5.53881 7.36527C5.91885 7.3676 6.30731 7.36799 6.69256 7.37072H7.08103C7.51845 7.33918 7.92377 7.29751 7.98477 7.2757H8.04657C8.10878 7.2757 8.17098 7.31698 8.2384 7.31464C8.30582 7.31231 8.3624 7.31231 8.4234 7.30919L8.48279 7.30413C8.53657 7.29673 8.58794 7.29167 8.59436 7.28855C8.60783 7.28839 8.62125 7.28708 8.63449 7.28466C8.64572 7.28466 8.66499 7.28037 8.67181 7.28037C8.68391 7.27883 8.69622 7.27975 8.70793 7.2831C8.72237 7.28582 8.74404 7.28855 8.75769 7.29167C8.77458 7.29301 8.79126 7.29615 8.80745 7.30101C8.8223 7.30101 8.84557 7.30802 8.85681 7.30919C8.86805 7.31036 9.44031 7.33684 10.1241 7.36293H10.7337C11.3405 7.36293 11.4561 7.5113 12.0532 7.50858C12.6504 7.50585 12.959 7.30374 13.5545 7.29556C14.15 7.28738 14.746 7.3345 15.3475 7.32009H15.9664C15.7657 7.32009 15.8592 7.37929 16.2441 7.37539H16.3332C16.4347 7.34346 16.5226 7.31737 16.5262 7.31737C16.5314 7.31658 16.5366 7.31658 16.5418 7.31737C16.5462 7.31737 16.5531 7.31737 16.5571 7.31737L16.5735 7.32126C16.578 7.32399 16.8689 7.32983 17.2212 7.33801L17.5423 7.34346C17.8613 7.34619 18.6005 7.54285 18.9184 7.54402C19.2362 7.54518 19.5556 7.54402 19.8723 7.54402C20.1889 7.54402 20.5092 7.54012 20.8254 7.53428C21.2532 7.52493 21.7038 7.52221 22.173 7.52221C22.6421 7.52221 22.7055 7.331 23.1971 7.33217C23.6887 7.33333 24.1851 7.2979 24.6819 7.29634C25.1788 7.29478 25.6671 7.33217 26.1483 7.31854C26.2286 7.31854 26.3088 7.31854 26.3891 7.31854C26.4694 7.31854 26.5416 7.32243 26.6211 7.32243C26.7005 7.32243 26.8506 7.23169 26.9228 7.22897H26.9979C27.0236 7.26027 27.0517 7.28957 27.0822 7.31659H27.1026C27.1106 7.31659 27.1199 7.31659 27.1255 7.31659C27.1311 7.31659 27.1411 7.31659 27.1468 7.31932L28.0405 7.31659H28.4819C28.927 7.31659 29.37 7.31659 29.8106 7.31932C30.2513 7.32204 30.6987 7.23559 31.135 7.24377L31.57 7.24922C32.0403 7.31386 32.5805 7.34969 32.7683 7.33178H32.9505C33.1327 7.32866 33.3241 7.35631 33.5159 7.35358C33.7077 7.35086 33.8967 7.3493 34.0838 7.34541L34.2728 7.34229C34.4016 7.35133 34.5309 7.35328 34.66 7.34813C34.7088 7.30922 34.754 7.26636 34.7953 7.22001C34.8515 7.15537 34.9052 7.12538 34.9157 7.14991C34.921 7.19082 34.916 7.23237 34.9012 7.27103C34.882 7.30997 35.091 7.34541 35.3639 7.34541C35.6368 7.34541 36.0786 7.35203 36.3503 7.36176C36.622 7.3715 37.0647 7.37422 37.338 7.36176C37.6112 7.3493 38.0527 7.34229 38.3244 7.34229C38.596 7.34229 38.8368 7.33995 38.8593 7.3384C38.8818 7.33684 38.9396 7.33411 38.9857 7.33178C39.0319 7.32944 39.0893 7.32594 39.1133 7.32321C39.1374 7.32048 39.4195 7.32048 39.7462 7.31932H40.0472C40.349 7.31932 40.6576 7.32204 40.9678 7.32749L41.7166 7.33295C41.9939 7.21612 42.3675 7.22157 42.5449 7.34969L42.8282 7.35514C43.2813 7.35086 43.7328 7.34969 44.1927 7.35086C44.6526 7.35203 45.1064 7.35086 45.5647 7.35358C46.023 7.35631 46.4841 7.35358 46.9448 7.35358C47.4055 7.35358 47.8618 7.23247 48.3189 7.22546C48.8526 7.22546 49.3872 7.34229 49.9161 7.34813C50.445 7.35397 50.9687 7.35904 51.4957 7.36176C52.0226 7.36449 52.5519 7.36877 53.084 7.36877C53.6162 7.36877 54.1519 7.32594 54.6997 7.3162C54.922 7.3162 55.1411 7.35514 55.3562 7.35514C55.5713 7.35514 55.7784 7.35125 55.9915 7.35125C56.2046 7.35125 56.4109 7.35125 56.6235 7.35125H56.8338C57.0702 7.3567 57.4482 7.35943 57.6766 7.3567C57.9049 7.35397 58.2713 7.34969 58.4973 7.34852C58.7232 7.34735 59.092 7.33178 59.3179 7.31815C59.5439 7.30452 59.9163 7.30335 60.1422 7.31386C60.3681 7.32438 60.989 7.33762 61.5207 7.34696H62.0304C62.5376 7.34969 63.0605 7.34696 63.5838 7.34696C64.1071 7.34696 64.6332 7.34307 65.1537 7.34307C65.6742 7.34307 66.1835 7.39798 66.6787 7.40187C67.249 7.40499 67.8196 7.35553 68.3923 7.3567C68.9649 7.35787 69.536 7.36098 70.1059 7.36371C70.6757 7.36644 71.2411 7.37072 71.8026 7.37072H72.3644C72.675 7.37072 72.8095 7.34034 73.1313 7.30568L73.1714 7.30062C73.2116 7.29478 73.2621 7.33957 73.3159 7.33957C73.3697 7.33957 73.4235 7.33957 73.4764 7.34229H73.527C73.6321 7.33893 73.7366 7.32589 73.8392 7.30335H73.9552C74.0688 7.30724 74.1892 7.36254 74.3083 7.36254C74.4275 7.36254 74.5491 7.36527 74.6695 7.36254H74.7875C74.9203 7.36254 75.0564 7.33645 75.0917 7.30491L75.1202 7.27453L75.1459 7.24416C75.1631 7.21644 75.1706 7.18405 75.1671 7.15186C75.1556 7.11046 75.1409 7.06997 75.123 7.03075C75.1045 6.98168 75.0154 6.87848 74.9304 6.80527C74.8257 6.71706 74.7075 6.6452 74.58 6.59225C74.4439 6.54152 74.3023 6.50598 74.1578 6.48633C74.0149 6.46871 73.8707 6.46323 73.7268 6.46997C73.5862 6.48316 73.4471 6.50924 73.3115 6.54786C73.1967 6.58096 72.9503 6.55214 72.7645 6.48749C72.5787 6.42285 72.6537 6.33172 72.4555 6.28927C72.2182 6.24391 71.9781 6.21308 71.7368 6.19698C71.5397 6.19036 71.3483 6.15609 71.317 6.12299C71.2857 6.08989 71.1565 6.03498 71.0337 6.00071C70.9109 5.96644 70.8085 5.93996 70.7997 5.93996C70.7909 5.93996 70.5991 5.91387 70.3775 5.8796C70.1226 5.83835 69.8714 5.77767 69.6263 5.69812C69.4377 5.63192 69.1335 5.50341 68.9473 5.41734C68.7611 5.33128 68.5789 5.24833 68.5408 5.23431C68.4899 5.2202 68.4369 5.21505 68.3842 5.21912C68.3052 5.23016 68.2268 5.24537 68.1495 5.26469C68.0504 5.28862 67.9479 5.2969 67.8461 5.28922C67.7457 5.27752 67.6462 5.25918 67.5483 5.23431C67.3555 5.16426 67.167 5.08352 66.9837 4.99248C66.7549 4.87954 66.3271 4.69534 66.0402 4.58358C65.7533 4.47181 65.4499 4.34174 65.368 4.29618C65.2654 4.23338 65.1689 4.16155 65.0799 4.0816C64.9898 4.00023 64.895 3.92403 64.7958 3.8534C64.6976 3.78684 64.5935 3.72885 64.4848 3.6801C64.365 3.63247 64.2387 3.60178 64.1099 3.58897C63.9735 3.57703 63.838 3.55687 63.7042 3.52861C63.5922 3.50525 63.4923 3.48344 63.4851 3.48344C63.4779 3.48344 63.4281 3.46942 63.3727 3.45423C63.2965 3.42906 63.219 3.408 63.1404 3.39114C63.0588 3.3748 62.976 3.36464 62.8928 3.36077C62.7397 3.34968 62.5874 3.32952 62.4369 3.30041C62.2487 3.26731 61.735 2.89073 61.296 2.4682C60.8569 2.04567 60.0423 1.57796 59.4837 1.43504C58.925 1.29212 58.0791 1.52578 57.6064 1.95104C57.1336 2.37629 56.3398 2.42536 55.8406 2.05696C55.3414 1.68856 54.6459 1.2746 54.2924 1.13401C53.9388 0.99343 53.125 0.828701 52.4805 0.769508C51.836 0.710315 50.8712 0.595044 50.3391 0.510927C49.807 0.426811 48.8442 0.658132 48.1977 1.02536C47.5512 1.3926 46.5463 1.69518 45.9632 1.69518C45.3801 1.69518 44.4896 2.04177 43.992 2.4682C43.4944 2.89462 42.9538 3.06402 42.7881 2.84516C42.6224 2.62631 42.2263 2.37045 41.8984 2.26998C41.5746 2.17123 41.2452 2.09036 40.912 2.02775C40.6993 1.99232 40.3329 1.95259 40.1018 1.93585C39.8706 1.9191 39.4745 1.88483 39.2237 1.8603C38.9729 1.83576 38.5547 1.80928 38.2866 1.79955C38.0186 1.78981 37.5908 1.78475 37.3343 1.78475C37.0779 1.78475 36.6678 1.79721 36.4266 1.81357C36.1854 1.82992 35.807 1.86731 35.5838 1.88912C35.3591 1.91677 35.0926 1.94948 34.9907 1.96895C34.8888 1.98842 34.7246 2.01724 34.6295 2.04177C34.5791 2.05892 34.5333 2.08707 34.4958 2.12407C34.4583 2.16107 34.4301 2.20592 34.4132 2.25518C34.3822 2.35795 34.3454 2.45897 34.3029 2.55777C34.2611 2.6466 34.2139 2.73295 34.1616 2.81635C34.1187 2.88372 34.0412 2.9838 33.9915 3.04455C33.9321 3.10923 33.8687 3.17036 33.8016 3.22758C33.7523 3.26653 33.6519 3.34441 33.5829 3.39114C33.5139 3.43788 33.3947 3.51615 33.3177 3.56055C33.2406 3.60494 33.1074 3.67738 33.0227 3.72683C32.9749 3.75187 32.9225 3.76744 32.8685 3.77266C32.8145 3.77787 32.76 3.77262 32.7081 3.75721C32.6023 3.7157 32.4924 3.68478 32.3802 3.66491C32.2859 3.64856 32.1298 3.62091 32.0363 3.60572C31.9428 3.59053 31.7726 3.55354 31.6615 3.52783C31.5014 3.48804 31.3443 3.43743 31.1915 3.37635C31.0471 3.3191 30.8087 3.20889 30.6602 3.13334C30.5117 3.05779 30.2541 2.94914 30.0936 2.8845C29.94 2.81972 29.7829 2.76329 29.6228 2.71549C29.5285 2.69212 29.3644 2.65084 29.2617 2.62475C29.1589 2.59866 28.9326 2.7996 28.7612 3.06636C28.5899 3.33312 28.378 3.58508 28.2929 3.62597C28.2078 3.66686 28.0521 3.73618 27.949 3.77863C27.7395 3.85049 27.5259 3.91069 27.3093 3.95893C27.0569 4.01813 26.7507 4.09367 26.6203 4.12678C26.4898 4.15988 26.2948 4.21634 26.1836 4.24789C26.0725 4.27943 25.9027 4.34291 25.806 4.38263C25.7093 4.42235 25.6009 4.48038 25.5584 4.50491C25.5116 4.53543 25.469 4.57154 25.4316 4.61239C25.4055 4.6455 25.3581 4.71442 25.3232 4.76349C25.2825 4.82502 25.2508 4.89173 25.2289 4.96171C25.2121 5.01935 25.1844 5.11748 25.1671 5.17356C25.1486 5.23768 25.138 5.30369 25.1354 5.37022C25.1354 5.42241 25.0845 5.44811 25.0263 5.43214C24.9437 5.41418 24.858 5.41418 24.7754 5.43214C24.6837 5.45307 24.5947 5.48362 24.5098 5.52327C24.4293 5.56363 24.3513 5.60849 24.2762 5.65762C24.2476 5.67848 24.2141 5.69225 24.1787 5.69775C24.1433 5.70324 24.1071 5.7003 24.0732 5.68916C24.0206 5.66463 23.9231 5.62335 23.8524 5.59726C23.7818 5.57117 23.6088 5.52444 23.4628 5.49289C23.3167 5.46135 23.0767 5.39476 22.9318 5.35504C22.787 5.31531 22.6168 5.2643 22.5554 5.25067C22.4861 5.2289 22.4183 5.20289 22.3524 5.17278C22.3006 5.14786 22.1665 4.9843 22.059 4.80944C21.9514 4.63459 21.7456 4.51231 21.6176 4.53684C21.467 4.56784 21.32 4.61351 21.1789 4.67314C21.067 4.7226 20.8141 4.83125 20.6171 4.91381C20.4201 4.99637 20.2005 5.08594 20.1323 5.1132C20.0512 5.14034 19.9676 5.16015 19.8827 5.17239C19.8133 5.1794 19.7093 5.1942 19.6488 5.20277C19.5779 5.21494 19.5088 5.2352 19.4429 5.26313C19.3915 5.28922 19.2603 5.25495 19.1471 5.18758C19.0339 5.12021 18.875 5.01818 18.7879 4.96054C18.6516 4.87788 18.5388 4.76342 18.4597 4.62758C18.4336 4.58513 18.3903 4.51075 18.3662 4.45974C18.3327 4.39128 18.3059 4.31997 18.2859 4.24672C18.2687 4.18091 18.1491 4.10497 18.0215 4.08043C17.8938 4.0559 17.6659 4.02241 17.5182 4.00255C17.3705 3.98269 17.1205 3.96672 16.9592 3.95699C16.7979 3.94725 16.5198 3.94335 16.3488 3.94335C16.1778 3.94335 15.7545 3.95698 15.4106 3.9749C15.0666 3.99281 14.6585 4.01618 14.504 4.03409C14.3495 4.05201 14.1091 4.0781 13.9719 4.09445C13.8346 4.11081 12.6692 4.17234 11.3794 4.23075C10.0896 4.28917 9.74731 4.34525 9.66705 4.35498C9.58679 4.36472 9.45075 4.38224 9.35443 4.40016C9.25812 4.41807 9.02135 4.44416 8.8243 4.46052C8.62726 4.47687 8.29699 4.5127 8.08711 4.5384C7.87722 4.5641 7.55297 4.61629 7.35592 4.65835C7.15888 4.70041 6.76199 4.80244 6.47987 4.88655C6.19775 4.97067 5.82775 5.07231 5.66682 5.11476C5.5059 5.1572 5.22258 5.23587 5.04239 5.29623C4.8622 5.35659 4.53835 5.46135 4.32245 5.5369C4.10654 5.61245 3.73574 5.75031 3.49455 5.8426C3.25337 5.93489 2.94316 6.05562 2.80631 6.1152C2.66946 6.17478 2.43711 6.26903 2.29143 6.32549C2.14576 6.38196 1.89855 6.49334 1.74325 6.56772C1.58794 6.6421 1.31987 6.76749 1.15172 6.84343C0.983575 6.91937 0.838302 7.00816 0.838302 7.04672V7.17873Z" fill="#FAFAFA"/>
</svg>
